<mxfile host="app.diagrams.net" modified="2024-06-13T07:30:28.638Z" agent="Mozilla/5.0 (Windows NT 10.0; Win64; x64) AppleWebKit/537.36 (KHTML, like Gecko) Chrome/125.0.0.0 Safari/537.36" etag="CRnG7gsi-6Y2P15K35EB" version="24.5.2" type="device" pages="4">
  <diagram name="C1" id="odHplabi5dRAo-yFadjH">
    <mxGraphModel dx="2074" dy="2221" grid="0" gridSize="10" guides="1" tooltips="1" connect="1" arrows="1" fold="1" page="1" pageScale="1" pageWidth="827" pageHeight="1169" math="0" shadow="0">
      <root>
        <mxCell id="0" />
        <mxCell id="1" parent="0" />
        <object placeholders="1" c4Name="Users" c4Type="Person" c4Description="A person who want to sign up to tournaments" label="&lt;font style=&quot;font-size: 16px&quot;&gt;&lt;b&gt;%c4Name%&lt;/b&gt;&lt;/font&gt;&lt;div&gt;[%c4Type%]&lt;/div&gt;&lt;br&gt;&lt;div&gt;&lt;font style=&quot;font-size: 11px&quot;&gt;&lt;font color=&quot;#cccccc&quot;&gt;%c4Description%&lt;/font&gt;&lt;/div&gt;" id="b0YJObg8rjsO6ToiQeCZ-1">
          <mxCell style="html=1;fontSize=11;dashed=0;whiteSpace=wrap;fillColor=#083F75;strokeColor=#06315C;fontColor=#ffffff;shape=mxgraph.c4.person2;align=center;metaEdit=1;points=[[0.5,0,0],[1,0.5,0],[1,0.75,0],[0.75,1,0],[0.5,1,0],[0.25,1,0],[0,0.75,0],[0,0.5,0]];resizable=0;" parent="1" vertex="1">
            <mxGeometry x="584" y="-315" width="200" height="180" as="geometry" />
          </mxCell>
        </object>
        <object placeholders="1" c4Name="Tounament System" c4Type="Software System" c4Description="Allow the player to register to tournaments, view game history, and spectate" label="&lt;font style=&quot;font-size: 16px&quot;&gt;&lt;b&gt;%c4Name%&lt;/b&gt;&lt;/font&gt;&lt;div&gt;[%c4Type%]&lt;/div&gt;&lt;br&gt;&lt;div&gt;&lt;font style=&quot;font-size: 11px&quot;&gt;&lt;font color=&quot;#cccccc&quot;&gt;%c4Description%&lt;/font&gt;&lt;/div&gt;" id="b0YJObg8rjsO6ToiQeCZ-2">
          <mxCell style="rounded=1;whiteSpace=wrap;html=1;labelBackgroundColor=none;fillColor=#1061B0;fontColor=#ffffff;align=center;arcSize=10;strokeColor=#0D5091;metaEdit=1;resizable=0;points=[[0.25,0,0],[0.5,0,0],[0.75,0,0],[1,0.25,0],[1,0.5,0],[1,0.75,0],[0.75,1,0],[0.5,1,0],[0.25,1,0],[0,0.75,0],[0,0.5,0],[0,0.25,0]];" parent="1" vertex="1">
            <mxGeometry x="438" y="15" width="240" height="120" as="geometry" />
          </mxCell>
        </object>
        <object placeholders="1" c4Name="Quantum Chess" c4Type="Software System" c4Description="The quantum chess game that the player owns" label="&lt;font style=&quot;font-size: 16px&quot;&gt;&lt;b&gt;%c4Name%&lt;/b&gt;&lt;/font&gt;&lt;div&gt;[%c4Type%]&lt;/div&gt;&lt;br&gt;&lt;div&gt;&lt;font style=&quot;font-size: 11px&quot;&gt;&lt;font color=&quot;#cccccc&quot;&gt;%c4Description%&lt;/font&gt;&lt;/div&gt;" id="b0YJObg8rjsO6ToiQeCZ-3">
          <mxCell style="rounded=1;whiteSpace=wrap;html=1;labelBackgroundColor=none;fillColor=#8C8496;fontColor=#ffffff;align=center;arcSize=10;strokeColor=#736782;metaEdit=1;resizable=0;points=[[0.25,0,0],[0.5,0,0],[0.75,0,0],[1,0.25,0],[1,0.5,0],[1,0.75,0],[0.75,1,0],[0.5,1,0],[0.25,1,0],[0,0.75,0],[0,0.5,0],[0,0.25,0]];" parent="1" vertex="1">
            <mxGeometry x="104" y="248" width="240" height="120" as="geometry" />
          </mxCell>
        </object>
        <object placeholders="1" c4Type="Relationship" c4Description="Register, view history, and spectate games using" label="&lt;div style=&quot;text-align: left&quot;&gt;&lt;div style=&quot;text-align: center&quot;&gt;&lt;b&gt;%c4Description%&lt;/b&gt;&lt;/div&gt;" id="b0YJObg8rjsO6ToiQeCZ-4">
          <mxCell style="endArrow=blockThin;html=1;fontSize=10;fontColor=#404040;strokeWidth=1;endFill=1;strokeColor=#828282;elbow=vertical;metaEdit=1;endSize=14;startSize=14;jumpStyle=arc;jumpSize=16;rounded=0;edgeStyle=orthogonalEdgeStyle;exitX=0.5;exitY=1;exitDx=0;exitDy=0;exitPerimeter=0;entryX=0.5;entryY=0;entryDx=0;entryDy=0;entryPerimeter=0;" parent="1" source="b0YJObg8rjsO6ToiQeCZ-1" target="b0YJObg8rjsO6ToiQeCZ-2" edge="1">
            <mxGeometry x="-0.5652" width="240" relative="1" as="geometry">
              <mxPoint x="544" y="-55" as="sourcePoint" />
              <mxPoint x="784" y="-55" as="targetPoint" />
              <mxPoint as="offset" />
            </mxGeometry>
          </mxCell>
        </object>
        <object placeholders="1" c4Type="Relationship" id="b0YJObg8rjsO6ToiQeCZ-5">
          <mxCell style="endArrow=blockThin;html=1;fontSize=10;fontColor=#404040;strokeWidth=1;endFill=1;strokeColor=#828282;elbow=vertical;metaEdit=1;endSize=14;startSize=14;jumpStyle=arc;jumpSize=16;rounded=0;edgeStyle=orthogonalEdgeStyle;exitX=0.5;exitY=1;exitDx=0;exitDy=0;exitPerimeter=0;" parent="1" source="b0YJObg8rjsO6ToiQeCZ-2" target="b0YJObg8rjsO6ToiQeCZ-3" edge="1">
            <mxGeometry width="240" relative="1" as="geometry">
              <mxPoint x="590" y="80" as="sourcePoint" />
              <mxPoint x="830" y="80" as="targetPoint" />
            </mxGeometry>
          </mxCell>
        </object>
        <mxCell id="b0YJObg8rjsO6ToiQeCZ-6" value="Embeds Game" style="edgeLabel;html=1;align=center;verticalAlign=middle;resizable=0;points=[];" parent="b0YJObg8rjsO6ToiQeCZ-5" vertex="1" connectable="0">
          <mxGeometry x="-0.0959" relative="1" as="geometry">
            <mxPoint as="offset" />
          </mxGeometry>
        </mxCell>
        <object placeholders="1" c4Name="Admin" c4Type="Person" c4Description="Person who manages tournaments and users information." label="&lt;font style=&quot;font-size: 16px&quot;&gt;&lt;b&gt;%c4Name%&lt;/b&gt;&lt;/font&gt;&lt;div&gt;[%c4Type%]&lt;/div&gt;&lt;br&gt;&lt;div&gt;&lt;font style=&quot;font-size: 11px&quot;&gt;&lt;font color=&quot;#cccccc&quot;&gt;%c4Description%&lt;/font&gt;&lt;/div&gt;" id="b0YJObg8rjsO6ToiQeCZ-7">
          <mxCell style="html=1;fontSize=11;dashed=0;whiteSpace=wrap;fillColor=#083F75;strokeColor=#06315C;fontColor=#ffffff;shape=mxgraph.c4.person2;align=center;metaEdit=1;points=[[0.5,0,0],[1,0.5,0],[1,0.75,0],[0.75,1,0],[0.5,1,0],[0.25,1,0],[0,0.75,0],[0,0.5,0]];resizable=0;" parent="1" vertex="1">
            <mxGeometry x="324" y="-315" width="200" height="180" as="geometry" />
          </mxCell>
        </object>
        <object placeholders="1" c4Type="Relationship" id="b0YJObg8rjsO6ToiQeCZ-8">
          <mxCell style="endArrow=blockThin;html=1;fontSize=10;fontColor=#404040;strokeWidth=1;endFill=1;strokeColor=#828282;elbow=vertical;metaEdit=1;endSize=14;startSize=14;jumpStyle=arc;jumpSize=16;rounded=0;edgeStyle=orthogonalEdgeStyle;exitX=0.5;exitY=1;exitDx=0;exitDy=0;exitPerimeter=0;entryX=0.5;entryY=0;entryDx=0;entryDy=0;entryPerimeter=0;" parent="1" source="b0YJObg8rjsO6ToiQeCZ-7" target="b0YJObg8rjsO6ToiQeCZ-2" edge="1">
            <mxGeometry width="240" relative="1" as="geometry">
              <mxPoint x="354" y="-65" as="sourcePoint" />
              <mxPoint x="594" y="-65" as="targetPoint" />
            </mxGeometry>
          </mxCell>
        </object>
        <mxCell id="b0YJObg8rjsO6ToiQeCZ-9" value="Manage system" style="edgeLabel;html=1;align=center;verticalAlign=middle;resizable=0;points=[];" parent="b0YJObg8rjsO6ToiQeCZ-8" vertex="1" connectable="0">
          <mxGeometry x="-0.6197" y="-2" relative="1" as="geometry">
            <mxPoint as="offset" />
          </mxGeometry>
        </mxCell>
        <object placeholders="1" c4Name="C1" c4Type="SystemScopeBoundary" c4Application="Quantum Chess Tournament Application" label="&lt;font style=&quot;font-size: 16px&quot;&gt;&lt;b&gt;&lt;div style=&quot;text-align: left&quot;&gt;%c4Name%&lt;/div&gt;&lt;/b&gt;&lt;/font&gt;&lt;div style=&quot;text-align: left&quot;&gt;[%c4Application%]&lt;/div&gt;" id="b0YJObg8rjsO6ToiQeCZ-10">
          <mxCell style="rounded=1;fontSize=11;whiteSpace=wrap;html=1;dashed=1;arcSize=20;fillColor=none;strokeColor=#666666;fontColor=#333333;labelBackgroundColor=none;align=left;verticalAlign=bottom;labelBorderColor=none;spacingTop=0;spacing=10;dashPattern=8 4;metaEdit=1;rotatable=0;perimeter=rectanglePerimeter;noLabel=0;labelPadding=0;allowArrows=0;connectable=0;expand=0;recursiveResize=0;editable=1;pointerEvents=0;absoluteArcSize=1;points=[[0.25,0,0],[0.5,0,0],[0.75,0,0],[1,0.25,0],[1,0.5,0],[1,0.75,0],[0.75,1,0],[0.5,1,0],[0.25,1,0],[0,0.75,0],[0,0.5,0],[0,0.25,0]];" parent="1" vertex="1">
            <mxGeometry x="64" y="-331" width="978" height="772" as="geometry" />
          </mxCell>
        </object>
        <object placeholders="1" c4Name="Email Service" c4Type="Software System" c4Description="Handle the emails that the user can receive" label="&lt;font style=&quot;font-size: 16px&quot;&gt;&lt;b&gt;%c4Name%&lt;/b&gt;&lt;/font&gt;&lt;div&gt;[%c4Type%]&lt;/div&gt;&lt;br&gt;&lt;div&gt;&lt;font style=&quot;font-size: 11px&quot;&gt;&lt;font color=&quot;#cccccc&quot;&gt;%c4Description%&lt;/font&gt;&lt;/div&gt;" id="OFk7QsmtiQHuAwKh17wb-1">
          <mxCell style="rounded=1;whiteSpace=wrap;html=1;labelBackgroundColor=none;fillColor=#8C8496;fontColor=#ffffff;align=center;arcSize=10;strokeColor=#736782;metaEdit=1;resizable=0;points=[[0.25,0,0],[0.5,0,0],[0.75,0,0],[1,0.25,0],[1,0.5,0],[1,0.75,0],[0.75,1,0],[0.5,1,0],[0.25,1,0],[0,0.75,0],[0,0.5,0],[0,0.25,0]];" parent="1" vertex="1">
            <mxGeometry x="438" y="248" width="240" height="120" as="geometry" />
          </mxCell>
        </object>
        <object placeholders="1" c4Type="Relationship" id="OFk7QsmtiQHuAwKh17wb-2">
          <mxCell style="endArrow=blockThin;html=1;fontSize=10;fontColor=#404040;strokeWidth=1;endFill=1;strokeColor=#828282;elbow=vertical;metaEdit=1;endSize=14;startSize=14;jumpStyle=arc;jumpSize=16;rounded=0;edgeStyle=orthogonalEdgeStyle;exitX=0.5;exitY=1;exitDx=0;exitDy=0;exitPerimeter=0;entryX=0.5;entryY=0;entryDx=0;entryDy=0;entryPerimeter=0;" parent="1" source="b0YJObg8rjsO6ToiQeCZ-2" target="OFk7QsmtiQHuAwKh17wb-1" edge="1">
            <mxGeometry width="240" relative="1" as="geometry">
              <mxPoint x="652" y="173" as="sourcePoint" />
              <mxPoint x="892" y="173" as="targetPoint" />
            </mxGeometry>
          </mxCell>
        </object>
        <mxCell id="OFk7QsmtiQHuAwKh17wb-6" value="Emails to user handler" style="edgeLabel;html=1;align=center;verticalAlign=middle;resizable=0;points=[];" parent="OFk7QsmtiQHuAwKh17wb-2" vertex="1" connectable="0">
          <mxGeometry x="0.3941" y="-5" relative="1" as="geometry">
            <mxPoint as="offset" />
          </mxGeometry>
        </mxCell>
        <object placeholders="1" c4Type="Relationship" id="OFk7QsmtiQHuAwKh17wb-3">
          <mxCell style="endArrow=blockThin;html=1;fontSize=10;fontColor=#404040;strokeWidth=1;endFill=1;strokeColor=#828282;elbow=vertical;metaEdit=1;endSize=14;startSize=14;jumpStyle=arc;jumpSize=16;rounded=0;edgeStyle=orthogonalEdgeStyle;exitX=0.5;exitY=1;exitDx=0;exitDy=0;exitPerimeter=0;entryX=0.5;entryY=0;entryDx=0;entryDy=0;entryPerimeter=0;" parent="1" source="b0YJObg8rjsO6ToiQeCZ-2" target="OFk7QsmtiQHuAwKh17wb-4" edge="1">
            <mxGeometry width="240" relative="1" as="geometry">
              <mxPoint x="701" y="173" as="sourcePoint" />
              <mxPoint x="825" y="208" as="targetPoint" />
            </mxGeometry>
          </mxCell>
        </object>
        <mxCell id="OFk7QsmtiQHuAwKh17wb-5" value="Language Choice" style="edgeLabel;html=1;align=center;verticalAlign=middle;resizable=0;points=[];" parent="OFk7QsmtiQHuAwKh17wb-3" vertex="1" connectable="0">
          <mxGeometry x="0.1033" relative="1" as="geometry">
            <mxPoint as="offset" />
          </mxGeometry>
        </mxCell>
        <object placeholders="1" c4Name="Language Processing API" c4Type="Software System" c4Description="Serve as a application to handle the multiple languages option in the system." label="&lt;font style=&quot;font-size: 16px&quot;&gt;&lt;b&gt;%c4Name%&lt;/b&gt;&lt;/font&gt;&lt;div&gt;[%c4Type%]&lt;/div&gt;&lt;br&gt;&lt;div&gt;&lt;font style=&quot;font-size: 11px&quot;&gt;&lt;font color=&quot;#cccccc&quot;&gt;%c4Description%&lt;/font&gt;&lt;/div&gt;" id="OFk7QsmtiQHuAwKh17wb-4">
          <mxCell style="rounded=1;whiteSpace=wrap;html=1;labelBackgroundColor=none;fillColor=#8C8496;fontColor=#ffffff;align=center;arcSize=10;strokeColor=#736782;metaEdit=1;resizable=0;points=[[0.25,0,0],[0.5,0,0],[0.75,0,0],[1,0.25,0],[1,0.5,0],[1,0.75,0],[0.75,1,0],[0.5,1,0],[0.25,1,0],[0,0.75,0],[0,0.5,0],[0,0.25,0]];" parent="1" vertex="1">
            <mxGeometry x="772" y="248" width="240" height="120" as="geometry" />
          </mxCell>
        </object>
      </root>
    </mxGraphModel>
  </diagram>
  <diagram id="X_n4i3bH-9gm6eC6E3bL" name="C2">
    <mxGraphModel dx="2231" dy="2326" grid="0" gridSize="10" guides="1" tooltips="1" connect="1" arrows="1" fold="1" page="1" pageScale="1" pageWidth="827" pageHeight="1169" math="0" shadow="0">
      <root>
        <mxCell id="0" />
        <mxCell id="1" parent="0" />
        <object placeholders="1" c4Name="Users" c4Type="Person" c4Description="A Quantum Chess user with a personal account" label="&lt;font style=&quot;font-size: 16px&quot;&gt;&lt;b&gt;%c4Name%&lt;/b&gt;&lt;/font&gt;&lt;div&gt;[%c4Type%]&lt;/div&gt;&lt;br&gt;&lt;div&gt;&lt;font style=&quot;font-size: 11px&quot;&gt;&lt;font color=&quot;#cccccc&quot;&gt;%c4Description%&lt;/font&gt;&lt;/div&gt;" id="b9T-vWPG0xiMzvd_5GCJ-1">
          <mxCell style="html=1;fontSize=11;dashed=0;whiteSpace=wrap;fillColor=#083F75;strokeColor=#06315C;fontColor=#ffffff;shape=mxgraph.c4.person2;align=center;metaEdit=1;points=[[0.5,0,0],[1,0.5,0],[1,0.75,0],[0.75,1,0],[0.5,1,0],[0.25,1,0],[0,0.75,0],[0,0.5,0]];resizable=0;" parent="1" vertex="1">
            <mxGeometry x="947" y="-18" width="200" height="180" as="geometry" />
          </mxCell>
        </object>
        <object placeholders="1" c4Name="Web application" c4Type="Container: React" c4Description="Provides all the functionalities for a user via the browser" label="&lt;font style=&quot;font-size: 16px&quot;&gt;&lt;b&gt;%c4Name%&lt;/b&gt;&lt;/font&gt;&lt;div&gt;[%c4Type%]&lt;/div&gt;&lt;br&gt;&lt;div&gt;&lt;font style=&quot;font-size: 11px&quot;&gt;&lt;font color=&quot;#cccccc&quot;&gt;%c4Description%&lt;/font&gt;&lt;/div&gt;" id="b9T-vWPG0xiMzvd_5GCJ-2">
          <mxCell style="rounded=1;whiteSpace=wrap;html=1;labelBackgroundColor=none;fillColor=#1061B0;fontColor=#ffffff;align=center;arcSize=10;strokeColor=#0D5091;metaEdit=1;resizable=0;points=[[0.25,0,0],[0.5,0,0],[0.75,0,0],[1,0.25,0],[1,0.5,0],[1,0.75,0],[0.75,1,0],[0.5,1,0],[0.25,1,0],[0,0.75,0],[0,0.5,0],[0,0.25,0]];" parent="1" vertex="1">
            <mxGeometry x="927" y="308" width="240" height="120" as="geometry" />
          </mxCell>
        </object>
        <object placeholders="1" c4Type="Relationship" id="b9T-vWPG0xiMzvd_5GCJ-5">
          <mxCell style="endArrow=blockThin;html=1;fontSize=10;fontColor=#404040;strokeWidth=1;endFill=1;strokeColor=#828282;elbow=vertical;metaEdit=1;endSize=14;startSize=14;jumpStyle=arc;jumpSize=16;rounded=0;edgeStyle=orthogonalEdgeStyle;exitX=0.5;exitY=1;exitDx=0;exitDy=0;exitPerimeter=0;entryX=0.5;entryY=0;entryDx=0;entryDy=0;entryPerimeter=0;" parent="1" source="b9T-vWPG0xiMzvd_5GCJ-1" target="b9T-vWPG0xiMzvd_5GCJ-2" edge="1">
            <mxGeometry width="240" relative="1" as="geometry">
              <mxPoint x="780" y="260" as="sourcePoint" />
              <mxPoint x="1020" y="260" as="targetPoint" />
            </mxGeometry>
          </mxCell>
        </object>
        <mxCell id="b9T-vWPG0xiMzvd_5GCJ-6" value="The user can update, view, and delete data." style="edgeLabel;html=1;align=center;verticalAlign=middle;resizable=0;points=[];" parent="b9T-vWPG0xiMzvd_5GCJ-5" vertex="1" connectable="0">
          <mxGeometry x="-0.2649" y="1" relative="1" as="geometry">
            <mxPoint x="-5" y="2" as="offset" />
          </mxGeometry>
        </mxCell>
        <object placeholders="1" c4Type="Relationship" c4Technology="JSON/HTTP" c4Description="Makes API calls" label="&lt;div style=&quot;text-align: left&quot;&gt;&lt;div style=&quot;text-align: center&quot;&gt;&lt;b&gt;%c4Description%&lt;/b&gt;&lt;/div&gt;&lt;div style=&quot;text-align: center&quot;&gt;[%c4Technology%]&lt;/div&gt;&lt;/div&gt;" id="b9T-vWPG0xiMzvd_5GCJ-7">
          <mxCell style="endArrow=blockThin;html=1;fontSize=10;fontColor=#404040;strokeWidth=1;endFill=1;strokeColor=#828282;elbow=vertical;metaEdit=1;endSize=14;startSize=14;jumpStyle=arc;jumpSize=16;rounded=0;edgeStyle=orthogonalEdgeStyle;exitX=0.5;exitY=1;exitDx=0;exitDy=0;exitPerimeter=0;entryX=0.5;entryY=0;entryDx=0;entryDy=0;entryPerimeter=0;" parent="1" source="b9T-vWPG0xiMzvd_5GCJ-2" target="ihpOGFcxj2weei1UJLiX-1" edge="1">
            <mxGeometry width="240" relative="1" as="geometry">
              <mxPoint x="1220" y="360" as="sourcePoint" />
              <mxPoint x="1460" y="360" as="targetPoint" />
            </mxGeometry>
          </mxCell>
        </object>
        <object placeholders="1" c4Name="Quantum Chess Game" c4Type="Software System" c4Description="The game that users play in the tournament" label="&lt;font style=&quot;font-size: 16px&quot;&gt;&lt;b&gt;%c4Name%&lt;/b&gt;&lt;/font&gt;&lt;div&gt;[%c4Type%]&lt;/div&gt;&lt;br&gt;&lt;div&gt;&lt;font style=&quot;font-size: 11px&quot;&gt;&lt;font color=&quot;#cccccc&quot;&gt;%c4Description%&lt;/font&gt;&lt;/div&gt;" id="b9T-vWPG0xiMzvd_5GCJ-11">
          <mxCell style="rounded=1;whiteSpace=wrap;html=1;labelBackgroundColor=none;fillColor=#8C8496;fontColor=#ffffff;align=center;arcSize=10;strokeColor=#736782;metaEdit=1;resizable=0;points=[[0.25,0,0],[0.5,0,0],[0.75,0,0],[1,0.25,0],[1,0.5,0],[1,0.75,0],[0.75,1,0],[0.5,1,0],[0.25,1,0],[0,0.75,0],[0,0.5,0],[0,0.25,0]];" parent="1" vertex="1">
            <mxGeometry x="1289" y="545" width="240" height="120" as="geometry" />
          </mxCell>
        </object>
        <object placeholders="1" c4Name="C2" c4Type="ContainerScopeBoundary" c4Application="Chess Tournament System" label="&lt;font style=&quot;font-size: 16px&quot;&gt;&lt;b&gt;&lt;div style=&quot;text-align: left&quot;&gt;%c4Name%&lt;/div&gt;&lt;/b&gt;&lt;/font&gt;&lt;div style=&quot;text-align: left&quot;&gt;[%c4Application%]&lt;/div&gt;" id="b9T-vWPG0xiMzvd_5GCJ-13">
          <mxCell style="rounded=1;fontSize=11;whiteSpace=wrap;html=1;dashed=1;arcSize=20;fillColor=none;strokeColor=#666666;fontColor=#333333;labelBackgroundColor=none;align=left;verticalAlign=bottom;labelBorderColor=none;spacingTop=0;spacing=10;dashPattern=8 4;metaEdit=1;rotatable=0;perimeter=rectanglePerimeter;noLabel=0;labelPadding=0;allowArrows=0;connectable=0;expand=0;recursiveResize=0;editable=1;pointerEvents=0;absoluteArcSize=1;points=[[0.25,0,0],[0.5,0,0],[0.75,0,0],[1,0.25,0],[1,0.5,0],[1,0.75,0],[0.75,1,0],[0.5,1,0],[0.25,1,0],[0,0.75,0],[0,0.5,0],[0,0.25,0]];" parent="1" vertex="1">
            <mxGeometry x="260" y="-52" width="2108" height="1591" as="geometry" />
          </mxCell>
        </object>
        <object placeholders="1" c4Name="Email Services" c4Type="Software System" c4Description="Handles the email to the end-user." label="&lt;font style=&quot;font-size: 16px&quot;&gt;&lt;b&gt;%c4Name%&lt;/b&gt;&lt;/font&gt;&lt;div&gt;[%c4Type%]&lt;/div&gt;&lt;br&gt;&lt;div&gt;&lt;font style=&quot;font-size: 11px&quot;&gt;&lt;font color=&quot;#cccccc&quot;&gt;%c4Description%&lt;/font&gt;&lt;/div&gt;" id="hRCAGr12a5XoohtmZb1W-1">
          <mxCell style="rounded=1;whiteSpace=wrap;html=1;labelBackgroundColor=none;fillColor=#8C8496;fontColor=#ffffff;align=center;arcSize=10;strokeColor=#736782;metaEdit=1;resizable=0;points=[[0.25,0,0],[0.5,0,0],[0.75,0,0],[1,0.25,0],[1,0.5,0],[1,0.75,0],[0.75,1,0],[0.5,1,0],[0.25,1,0],[0,0.75,0],[0,0.5,0],[0,0.25,0]];" parent="1" vertex="1">
            <mxGeometry x="1633" y="545" width="240" height="120" as="geometry" />
          </mxCell>
        </object>
        <object placeholders="1" c4Type="Relationship" id="hRCAGr12a5XoohtmZb1W-2">
          <mxCell style="endArrow=blockThin;html=1;fontSize=10;fontColor=#404040;strokeWidth=1;endFill=1;strokeColor=#828282;elbow=vertical;metaEdit=1;endSize=14;startSize=14;jumpStyle=arc;jumpSize=16;rounded=0;edgeStyle=orthogonalEdgeStyle;exitX=1;exitY=0.5;exitDx=0;exitDy=0;exitPerimeter=0;entryX=0.5;entryY=1;entryDx=0;entryDy=0;entryPerimeter=0;" parent="1" source="ihpOGFcxj2weei1UJLiX-5" target="hRCAGr12a5XoohtmZb1W-1" edge="1">
            <mxGeometry width="240" relative="1" as="geometry">
              <mxPoint x="1450" y="300" as="sourcePoint" />
              <mxPoint x="1347" y="184" as="targetPoint" />
              <Array as="points">
                <mxPoint x="1562" y="878" />
                <mxPoint x="1753" y="878" />
              </Array>
            </mxGeometry>
          </mxCell>
        </object>
        <mxCell id="me-8iirR2OCdECBou9mj-1" value="Sends email using" style="edgeLabel;html=1;align=center;verticalAlign=middle;resizable=0;points=[];" parent="hRCAGr12a5XoohtmZb1W-2" vertex="1" connectable="0">
          <mxGeometry x="0.0485" y="2" relative="1" as="geometry">
            <mxPoint x="22" y="-160" as="offset" />
          </mxGeometry>
        </mxCell>
        <object placeholders="1" c4Type="Relationship" c4Description="Sends emails to" label="&lt;div style=&quot;text-align: left&quot;&gt;&lt;div style=&quot;text-align: center&quot;&gt;&lt;b&gt;%c4Description%&lt;/b&gt;&lt;/div&gt;" id="me-8iirR2OCdECBou9mj-2">
          <mxCell style="endArrow=blockThin;html=1;fontSize=10;fontColor=#404040;strokeWidth=1;endFill=1;strokeColor=#828282;elbow=vertical;metaEdit=1;endSize=14;startSize=14;jumpStyle=arc;jumpSize=16;rounded=0;edgeStyle=orthogonalEdgeStyle;exitX=0.5;exitY=0;exitDx=0;exitDy=0;exitPerimeter=0;entryX=1;entryY=0.75;entryDx=0;entryDy=0;entryPerimeter=0;" parent="1" source="hRCAGr12a5XoohtmZb1W-1" target="b9T-vWPG0xiMzvd_5GCJ-1" edge="1">
            <mxGeometry width="240" relative="1" as="geometry">
              <mxPoint x="859" y="81" as="sourcePoint" />
              <mxPoint x="1099" y="81" as="targetPoint" />
            </mxGeometry>
          </mxCell>
        </object>
        <object placeholders="1" c4Name="API Gateway" c4Type="YARP" c4Description="Handles the requests of the user" label="&lt;font style=&quot;font-size: 16px&quot;&gt;&lt;b&gt;%c4Name%&lt;/b&gt;&lt;/font&gt;&lt;div&gt;[%c4Type%]&lt;/div&gt;&lt;br&gt;&lt;div&gt;&lt;font style=&quot;font-size: 11px&quot;&gt;&lt;font color=&quot;#cccccc&quot;&gt;%c4Description%&lt;/font&gt;&lt;/div&gt;" id="ihpOGFcxj2weei1UJLiX-1">
          <mxCell style="rounded=1;whiteSpace=wrap;html=1;labelBackgroundColor=none;fillColor=#1061B0;fontColor=#ffffff;align=center;arcSize=10;strokeColor=#0D5091;metaEdit=1;resizable=0;points=[[0.25,0,0],[0.5,0,0],[0.75,0,0],[1,0.25,0],[1,0.5,0],[1,0.75,0],[0.75,1,0],[0.5,1,0],[0.25,1,0],[0,0.75,0],[0,0.5,0],[0,0.25,0]];" parent="1" vertex="1">
            <mxGeometry x="930" y="549" width="240" height="120" as="geometry" />
          </mxCell>
        </object>
        <object placeholders="1" c4Type="User Service" c4Container="Container" c4Technology=".NET API Core" c4Description="Handles the logic of the users" label="&lt;font style=&quot;font-size: 16px&quot;&gt;&lt;b&gt;%c4Type%&lt;/b&gt;&lt;/font&gt;&lt;div&gt;[%c4Container%:&amp;nbsp;%c4Technology%]&lt;/div&gt;&lt;br&gt;&lt;div&gt;&lt;font style=&quot;font-size: 11px&quot;&gt;&lt;font color=&quot;#E6E6E6&quot;&gt;%c4Description%&lt;/font&gt;&lt;/div&gt;" id="ihpOGFcxj2weei1UJLiX-3">
          <mxCell style="shape=hexagon;size=50;perimeter=hexagonPerimeter2;whiteSpace=wrap;html=1;fixedSize=1;rounded=1;labelBackgroundColor=none;fillColor=#23A2D9;fontSize=12;fontColor=#ffffff;align=center;strokeColor=#0E7DAD;metaEdit=1;points=[[0.5,0,0],[1,0.25,0],[1,0.5,0],[1,0.75,0],[0.5,1,0],[0,0.75,0],[0,0.5,0],[0,0.25,0]];resizable=0;" parent="1" vertex="1">
            <mxGeometry x="514" y="878" width="200" height="170" as="geometry" />
          </mxCell>
        </object>
        <object placeholders="1" c4Type="Tournament Service" c4Container="Container" c4Technology=".NET API Core" c4Description="Handles the logic of the tournament application" label="&lt;font style=&quot;font-size: 16px&quot;&gt;&lt;b&gt;%c4Type%&lt;/b&gt;&lt;/font&gt;&lt;div&gt;[%c4Container%:&amp;nbsp;%c4Technology%]&lt;/div&gt;&lt;br&gt;&lt;div&gt;&lt;font style=&quot;font-size: 11px&quot;&gt;&lt;font color=&quot;#E6E6E6&quot;&gt;%c4Description%&lt;/font&gt;&lt;/div&gt;" id="ihpOGFcxj2weei1UJLiX-4">
          <mxCell style="shape=hexagon;size=50;perimeter=hexagonPerimeter2;whiteSpace=wrap;html=1;fixedSize=1;rounded=1;labelBackgroundColor=none;fillColor=#23A2D9;fontSize=12;fontColor=#ffffff;align=center;strokeColor=#0E7DAD;metaEdit=1;points=[[0.5,0,0],[1,0.25,0],[1,0.5,0],[1,0.75,0],[0.5,1,0],[0,0.75,0],[0,0.5,0],[0,0.25,0]];resizable=0;" parent="1" vertex="1">
            <mxGeometry x="950" y="878" width="200" height="170" as="geometry" />
          </mxCell>
        </object>
        <object placeholders="1" c4Type="Notification Service" c4Container="Container" c4Technology=".NET API Core" c4Description="Handles the notifications &#39;&#xa;such as push &#xa;messages, email, etc." label="&lt;font style=&quot;font-size: 16px&quot;&gt;&lt;b&gt;%c4Type%&lt;/b&gt;&lt;/font&gt;&lt;div&gt;[%c4Container%:&amp;nbsp;%c4Technology%]&lt;/div&gt;&lt;br&gt;&lt;div&gt;&lt;font style=&quot;font-size: 11px&quot;&gt;&lt;font color=&quot;#E6E6E6&quot;&gt;%c4Description%&lt;/font&gt;&lt;/div&gt;" id="ihpOGFcxj2weei1UJLiX-5">
          <mxCell style="shape=hexagon;size=50;perimeter=hexagonPerimeter2;whiteSpace=wrap;html=1;fixedSize=1;rounded=1;labelBackgroundColor=none;fillColor=#23A2D9;fontSize=12;fontColor=#ffffff;align=center;strokeColor=#0E7DAD;metaEdit=1;points=[[0.5,0,0],[1,0.25,0],[1,0.5,0],[1,0.75,0],[0.5,1,0],[0,0.75,0],[0,0.5,0],[0,0.25,0]];resizable=0;" parent="1" vertex="1">
            <mxGeometry x="1362" y="878" width="200" height="170" as="geometry" />
          </mxCell>
        </object>
        <object placeholders="1" c4Type="Message Broker" c4Container="Container" c4Technology="RabbitMQ" c4Description="Description of message bus type container role/responsibility." label="&lt;font style=&quot;font-size: 16px&quot;&gt;&lt;b&gt;%c4Type%&lt;/b&gt;&lt;/font&gt;&lt;div&gt;[%c4Container%:&amp;nbsp;%c4Technology%]&lt;/div&gt;&lt;br&gt;&lt;div&gt;&lt;font style=&quot;font-size: 11px&quot;&gt;&lt;font color=&quot;#E6E6E6&quot;&gt;%c4Description%&lt;/font&gt;&lt;/div&gt;" id="ihpOGFcxj2weei1UJLiX-6">
          <mxCell style="shape=cylinder3;size=15;direction=south;whiteSpace=wrap;html=1;boundedLbl=1;rounded=0;labelBackgroundColor=none;fillColor=#23A2D9;fontSize=12;fontColor=#ffffff;align=center;strokeColor=#0E7DAD;metaEdit=1;points=[[0.5,0,0],[1,0.25,0],[1,0.5,0],[1,0.75,0],[0.5,1,0],[0,0.75,0],[0,0.5,0],[0,0.25,0]];resizable=0;" parent="1" vertex="1">
            <mxGeometry x="1084" y="1358" width="240" height="120" as="geometry" />
          </mxCell>
        </object>
        <object placeholders="1" c4Type="Relationship" id="emVfH_AcntgQBUlX9nu8-2">
          <mxCell style="endArrow=blockThin;html=1;fontSize=10;fontColor=#404040;strokeWidth=1;endFill=1;strokeColor=#828282;elbow=vertical;metaEdit=1;endSize=14;startSize=14;jumpStyle=arc;jumpSize=16;rounded=0;edgeStyle=orthogonalEdgeStyle;exitX=0;exitY=0.25;exitDx=0;exitDy=0;exitPerimeter=0;" parent="1" source="ihpOGFcxj2weei1UJLiX-6" target="ihpOGFcxj2weei1UJLiX-5" edge="1">
            <mxGeometry width="240" relative="1" as="geometry">
              <mxPoint x="1466" y="1169" as="sourcePoint" />
              <mxPoint x="1407" y="1306" as="targetPoint" />
            </mxGeometry>
          </mxCell>
        </object>
        <object placeholders="1" c4Type="Relationship" id="emVfH_AcntgQBUlX9nu8-8">
          <mxCell style="endArrow=blockThin;html=1;fontSize=10;fontColor=#404040;strokeWidth=1;endFill=1;strokeColor=#828282;elbow=vertical;metaEdit=1;endSize=14;startSize=14;jumpStyle=arc;jumpSize=16;rounded=0;edgeStyle=orthogonalEdgeStyle;exitX=0.5;exitY=1;exitDx=0;exitDy=0;exitPerimeter=0;entryX=0.287;entryY=0.014;entryDx=0;entryDy=0;entryPerimeter=0;" parent="1" source="ihpOGFcxj2weei1UJLiX-1" target="ihpOGFcxj2weei1UJLiX-5" edge="1">
            <mxGeometry width="240" relative="1" as="geometry">
              <mxPoint x="1141" y="813" as="sourcePoint" />
              <mxPoint x="1381" y="813" as="targetPoint" />
            </mxGeometry>
          </mxCell>
        </object>
        <object placeholders="1" c4Type="Relationship" id="emVfH_AcntgQBUlX9nu8-9">
          <mxCell style="endArrow=blockThin;html=1;fontSize=10;fontColor=#404040;strokeWidth=1;endFill=1;strokeColor=#828282;elbow=vertical;metaEdit=1;endSize=14;startSize=14;jumpStyle=arc;jumpSize=16;rounded=0;edgeStyle=orthogonalEdgeStyle;exitX=0.5;exitY=1;exitDx=0;exitDy=0;exitPerimeter=0;entryX=0.5;entryY=0;entryDx=0;entryDy=0;entryPerimeter=0;" parent="1" source="ihpOGFcxj2weei1UJLiX-1" target="ihpOGFcxj2weei1UJLiX-4" edge="1">
            <mxGeometry width="240" relative="1" as="geometry">
              <mxPoint x="1050" y="825" as="sourcePoint" />
              <mxPoint x="1290" y="825" as="targetPoint" />
            </mxGeometry>
          </mxCell>
        </object>
        <object placeholders="1" c4Type="Relationship" id="emVfH_AcntgQBUlX9nu8-10">
          <mxCell style="endArrow=blockThin;html=1;fontSize=10;fontColor=#404040;strokeWidth=1;endFill=1;strokeColor=#828282;elbow=vertical;metaEdit=1;endSize=14;startSize=14;jumpStyle=arc;jumpSize=16;rounded=0;edgeStyle=orthogonalEdgeStyle;exitX=0.5;exitY=1;exitDx=0;exitDy=0;exitPerimeter=0;entryX=0.5;entryY=0;entryDx=0;entryDy=0;entryPerimeter=0;" parent="1" source="ihpOGFcxj2weei1UJLiX-1" target="ihpOGFcxj2weei1UJLiX-3" edge="1">
            <mxGeometry width="240" relative="1" as="geometry">
              <mxPoint x="608" y="799" as="sourcePoint" />
              <mxPoint x="848" y="799" as="targetPoint" />
              <Array as="points">
                <mxPoint x="1050" y="773" />
                <mxPoint x="614" y="773" />
              </Array>
            </mxGeometry>
          </mxCell>
        </object>
        <object placeholders="1" c4Type="Database" c4Container="Container" c4Technology="MySQL" c4Description="Stores the information of the user" label="&lt;font style=&quot;font-size: 16px&quot;&gt;&lt;b&gt;%c4Type%&lt;/b&gt;&lt;/font&gt;&lt;div&gt;[%c4Container%:&amp;nbsp;%c4Technology%]&lt;/div&gt;&lt;br&gt;&lt;div&gt;&lt;font style=&quot;font-size: 11px&quot;&gt;&lt;font color=&quot;#E6E6E6&quot;&gt;%c4Description%&lt;/font&gt;&lt;/div&gt;" id="q1AT13MmO7LocBhThj_K-2">
          <mxCell style="shape=cylinder3;size=15;whiteSpace=wrap;html=1;boundedLbl=1;rounded=0;labelBackgroundColor=none;fillColor=#23A2D9;fontSize=12;fontColor=#ffffff;align=center;strokeColor=#0E7DAD;metaEdit=1;points=[[0.5,0,0],[1,0.25,0],[1,0.5,0],[1,0.75,0],[0.5,1,0],[0,0.75,0],[0,0.5,0],[0,0.25,0]];resizable=0;" parent="1" vertex="1">
            <mxGeometry x="305" y="1095" width="240" height="120" as="geometry" />
          </mxCell>
        </object>
        <object placeholders="1" c4Type="Relationship" c4Description="Reads and write to &#xa;[SQL]" label="&lt;div style=&quot;text-align: left&quot;&gt;&lt;div style=&quot;text-align: center&quot;&gt;&lt;b&gt;%c4Description%&lt;/b&gt;&lt;/div&gt;" id="q1AT13MmO7LocBhThj_K-3">
          <mxCell style="endArrow=blockThin;html=1;fontSize=10;fontColor=#404040;strokeWidth=1;endFill=1;strokeColor=#828282;elbow=vertical;metaEdit=1;endSize=14;startSize=14;jumpStyle=arc;jumpSize=16;rounded=0;edgeStyle=orthogonalEdgeStyle;exitX=0.5;exitY=1;exitDx=0;exitDy=0;exitPerimeter=0;entryX=0.5;entryY=0;entryDx=0;entryDy=0;entryPerimeter=0;" parent="1" source="ihpOGFcxj2weei1UJLiX-3" target="q1AT13MmO7LocBhThj_K-2" edge="1">
            <mxGeometry width="240" relative="1" as="geometry">
              <mxPoint x="652" y="1289" as="sourcePoint" />
              <mxPoint x="956" y="1330" as="targetPoint" />
            </mxGeometry>
          </mxCell>
        </object>
        <object placeholders="1" c4Type="Database" c4Container="Container" c4Technology="MySQL" c4Description="Stores the information of the tournamnet" label="&lt;font style=&quot;font-size: 16px&quot;&gt;&lt;b&gt;%c4Type%&lt;/b&gt;&lt;/font&gt;&lt;div&gt;[%c4Container%:&amp;nbsp;%c4Technology%]&lt;/div&gt;&lt;br&gt;&lt;div&gt;&lt;font style=&quot;font-size: 11px&quot;&gt;&lt;font color=&quot;#E6E6E6&quot;&gt;%c4Description%&lt;/font&gt;&lt;/div&gt;" id="q1AT13MmO7LocBhThj_K-4">
          <mxCell style="shape=cylinder3;size=15;whiteSpace=wrap;html=1;boundedLbl=1;rounded=0;labelBackgroundColor=none;fillColor=#23A2D9;fontSize=12;fontColor=#ffffff;align=center;strokeColor=#0E7DAD;metaEdit=1;points=[[0.5,0,0],[1,0.25,0],[1,0.5,0],[1,0.75,0],[0.5,1,0],[0,0.75,0],[0,0.5,0],[0,0.25,0]];resizable=0;" parent="1" vertex="1">
            <mxGeometry x="739" y="1109" width="240" height="120" as="geometry" />
          </mxCell>
        </object>
        <object placeholders="1" c4Type="Relationship" c4Description="Reads and write to &#xa;[SQL]" label="&lt;div style=&quot;text-align: left&quot;&gt;&lt;div style=&quot;text-align: center&quot;&gt;&lt;b&gt;%c4Description%&lt;/b&gt;&lt;/div&gt;" id="q1AT13MmO7LocBhThj_K-5">
          <mxCell style="endArrow=blockThin;html=1;fontSize=10;fontColor=#404040;strokeWidth=1;endFill=1;strokeColor=#828282;elbow=vertical;metaEdit=1;endSize=14;startSize=14;jumpStyle=arc;jumpSize=16;rounded=0;edgeStyle=orthogonalEdgeStyle;exitX=0.5;exitY=1;exitDx=0;exitDy=0;exitPerimeter=0;entryX=0.5;entryY=0;entryDx=0;entryDy=0;entryPerimeter=0;" parent="1" source="ihpOGFcxj2weei1UJLiX-4" target="q1AT13MmO7LocBhThj_K-4" edge="1">
            <mxGeometry width="240" relative="1" as="geometry">
              <mxPoint x="1041" y="1056" as="sourcePoint" />
              <mxPoint x="1383" y="1338" as="targetPoint" />
            </mxGeometry>
          </mxCell>
        </object>
        <object placeholders="1" c4Type="Relationship" id="q1AT13MmO7LocBhThj_K-10">
          <mxCell style="endArrow=blockThin;html=1;fontSize=10;fontColor=#404040;strokeWidth=1;endFill=1;strokeColor=#828282;elbow=vertical;metaEdit=1;endSize=14;startSize=14;jumpStyle=arc;jumpSize=16;rounded=0;edgeStyle=orthogonalEdgeStyle;exitX=0.5;exitY=1;exitDx=0;exitDy=0;exitPerimeter=0;entryX=0;entryY=0.5;entryDx=0;entryDy=0;entryPerimeter=0;" parent="1" source="ihpOGFcxj2weei1UJLiX-4" target="ihpOGFcxj2weei1UJLiX-6" edge="1">
            <mxGeometry width="240" relative="1" as="geometry">
              <mxPoint x="1052" y="1234" as="sourcePoint" />
              <mxPoint x="1157" y="1304" as="targetPoint" />
            </mxGeometry>
          </mxCell>
        </object>
        <object placeholders="1" c4Type="Complain Service" c4Container="Container" c4Technology=".NET API Core" c4Description="Handles the logic of the complains" label="&lt;font style=&quot;font-size: 16px&quot;&gt;&lt;b&gt;%c4Type%&lt;/b&gt;&lt;/font&gt;&lt;div&gt;[%c4Container%:&amp;nbsp;%c4Technology%]&lt;/div&gt;&lt;br&gt;&lt;div&gt;&lt;font style=&quot;font-size: 11px&quot;&gt;&lt;font color=&quot;#E6E6E6&quot;&gt;%c4Description%&lt;/font&gt;&lt;/div&gt;" id="8JdCFx_c3i1iGXsKNh1f-1">
          <mxCell style="shape=hexagon;size=50;perimeter=hexagonPerimeter2;whiteSpace=wrap;html=1;fixedSize=1;rounded=1;labelBackgroundColor=none;fillColor=#23A2D9;fontSize=12;fontColor=#ffffff;align=center;strokeColor=#0E7DAD;metaEdit=1;points=[[0.5,0,0],[1,0.25,0],[1,0.5,0],[1,0.75,0],[0.5,1,0],[0,0.75,0],[0,0.5,0],[0,0.25,0]];resizable=0;" parent="1" vertex="1">
            <mxGeometry x="1766" y="878" width="200" height="170" as="geometry" />
          </mxCell>
        </object>
        <object placeholders="1" c4Type="Relationship" id="8JdCFx_c3i1iGXsKNh1f-2">
          <mxCell style="endArrow=blockThin;html=1;fontSize=10;fontColor=#404040;strokeWidth=1;endFill=1;strokeColor=#828282;elbow=vertical;metaEdit=1;endSize=14;startSize=14;jumpStyle=arc;jumpSize=16;rounded=0;edgeStyle=orthogonalEdgeStyle;entryX=0.5;entryY=0;entryDx=0;entryDy=0;entryPerimeter=0;exitX=0.5;exitY=1;exitDx=0;exitDy=0;exitPerimeter=0;" parent="1" source="ihpOGFcxj2weei1UJLiX-1" target="8JdCFx_c3i1iGXsKNh1f-1" edge="1">
            <mxGeometry width="240" relative="1" as="geometry">
              <mxPoint x="1087" y="720" as="sourcePoint" />
              <mxPoint x="624" y="888" as="targetPoint" />
            </mxGeometry>
          </mxCell>
        </object>
        <object placeholders="1" c4Type="Relationship" id="8JdCFx_c3i1iGXsKNh1f-3">
          <mxCell style="endArrow=blockThin;html=1;fontSize=10;fontColor=#404040;strokeWidth=1;endFill=1;strokeColor=#828282;elbow=vertical;metaEdit=1;endSize=14;startSize=14;jumpStyle=arc;jumpSize=16;rounded=0;edgeStyle=orthogonalEdgeStyle;exitX=0.5;exitY=1;exitDx=0;exitDy=0;exitPerimeter=0;entryX=0.5;entryY=0;entryDx=0;entryDy=0;entryPerimeter=0;" parent="1" source="8JdCFx_c3i1iGXsKNh1f-1" target="ihpOGFcxj2weei1UJLiX-6" edge="1">
            <mxGeometry width="240" relative="1" as="geometry">
              <mxPoint x="1472" y="1058" as="sourcePoint" />
              <mxPoint x="1274" y="1368" as="targetPoint" />
            </mxGeometry>
          </mxCell>
        </object>
        <object placeholders="1" c4Type="Database" c4Container="Container" c4Technology="MySQL" c4Description="Stores the information of the tournamnet" label="&lt;font style=&quot;font-size: 16px&quot;&gt;&lt;b&gt;%c4Type%&lt;/b&gt;&lt;/font&gt;&lt;div&gt;[%c4Container%:&amp;nbsp;%c4Technology%]&lt;/div&gt;&lt;br&gt;&lt;div&gt;&lt;font style=&quot;font-size: 11px&quot;&gt;&lt;font color=&quot;#E6E6E6&quot;&gt;%c4Description%&lt;/font&gt;&lt;/div&gt;" id="JYOAKzput-05AYKQV8a5-1">
          <mxCell style="shape=cylinder3;size=15;whiteSpace=wrap;html=1;boundedLbl=1;rounded=0;labelBackgroundColor=none;fillColor=#23A2D9;fontSize=12;fontColor=#ffffff;align=center;strokeColor=#0E7DAD;metaEdit=1;points=[[0.5,0,0],[1,0.25,0],[1,0.5,0],[1,0.75,0],[0.5,1,0],[0,0.75,0],[0,0.5,0],[0,0.25,0]];resizable=0;" parent="1" vertex="1">
            <mxGeometry x="1560" y="1106" width="240" height="120" as="geometry" />
          </mxCell>
        </object>
        <object placeholders="1" c4Type="Relationship" c4Description="Reads and write to &#xa;[SQL]" label="&lt;div style=&quot;text-align: left&quot;&gt;&lt;div style=&quot;text-align: center&quot;&gt;&lt;b&gt;%c4Description%&lt;/b&gt;&lt;/div&gt;" id="JYOAKzput-05AYKQV8a5-2">
          <mxCell style="endArrow=blockThin;html=1;fontSize=10;fontColor=#404040;strokeWidth=1;endFill=1;strokeColor=#828282;elbow=vertical;metaEdit=1;endSize=14;startSize=14;jumpStyle=arc;jumpSize=16;rounded=0;edgeStyle=orthogonalEdgeStyle;exitX=0.5;exitY=1;exitDx=0;exitDy=0;exitPerimeter=0;entryX=0.5;entryY=0;entryDx=0;entryDy=0;entryPerimeter=0;" parent="1" source="8JdCFx_c3i1iGXsKNh1f-1" target="JYOAKzput-05AYKQV8a5-1" edge="1">
            <mxGeometry width="240" relative="1" as="geometry">
              <mxPoint x="1060" y="1058" as="sourcePoint" />
              <mxPoint x="869" y="1119" as="targetPoint" />
            </mxGeometry>
          </mxCell>
        </object>
        <object placeholders="1" c4Name="Azure Key Vault" c4Type="Software System" c4Description="Storing the secrets, passwords, tokens, etc. Used by connecting to third party services " label="&lt;font style=&quot;font-size: 16px&quot;&gt;&lt;b&gt;%c4Name%&lt;/b&gt;&lt;/font&gt;&lt;div&gt;[%c4Type%]&lt;/div&gt;&lt;br&gt;&lt;div&gt;&lt;font style=&quot;font-size: 11px&quot;&gt;&lt;font color=&quot;#cccccc&quot;&gt;%c4Description%&lt;/font&gt;&lt;/div&gt;" id="oge4HoRaS3fzwnAhej7C-1">
          <mxCell style="rounded=1;whiteSpace=wrap;html=1;labelBackgroundColor=none;fillColor=#8C8496;fontColor=#ffffff;align=center;arcSize=10;strokeColor=#736782;metaEdit=1;resizable=0;points=[[0.25,0,0],[0.5,0,0],[0.75,0,0],[1,0.25,0],[1,0.5,0],[1,0.75,0],[0.75,1,0],[0.5,1,0],[0.25,1,0],[0,0.75,0],[0,0.5,0],[0,0.25,0]];" parent="1" vertex="1">
            <mxGeometry x="2053" y="8" width="240" height="120" as="geometry" />
          </mxCell>
        </object>
        <object placeholders="1" c4Type="Relationship" id="ARSdOUmJNVJREB1t0q3F-1">
          <mxCell style="endArrow=blockThin;html=1;fontSize=10;fontColor=#404040;strokeWidth=1;endFill=1;strokeColor=#828282;elbow=vertical;metaEdit=1;endSize=14;startSize=14;jumpStyle=arc;jumpSize=16;rounded=0;edgeStyle=orthogonalEdgeStyle;exitX=0.5;exitY=1;exitDx=0;exitDy=0;exitPerimeter=0;entryX=0.5;entryY=1;entryDx=0;entryDy=0;entryPerimeter=0;" parent="1" source="ihpOGFcxj2weei1UJLiX-3" target="ihpOGFcxj2weei1UJLiX-6" edge="1">
            <mxGeometry width="240" relative="1" as="geometry">
              <mxPoint x="1060" y="1058" as="sourcePoint" />
              <mxPoint x="1214" y="1368" as="targetPoint" />
              <Array as="points">
                <mxPoint x="614" y="1418" />
              </Array>
            </mxGeometry>
          </mxCell>
        </object>
        <object placeholders="1" c4Type="Relationship" id="ARSdOUmJNVJREB1t0q3F-3">
          <mxCell style="endArrow=blockThin;html=1;fontSize=10;fontColor=#404040;strokeWidth=1;endFill=1;strokeColor=#828282;elbow=vertical;metaEdit=1;endSize=14;startSize=14;jumpStyle=arc;jumpSize=16;rounded=0;edgeStyle=orthogonalEdgeStyle;exitX=0.853;exitY=0.179;exitDx=0;exitDy=0;exitPerimeter=0;entryX=0.25;entryY=1;entryDx=0;entryDy=0;entryPerimeter=0;" parent="1" source="ihpOGFcxj2weei1UJLiX-4" target="b9T-vWPG0xiMzvd_5GCJ-11" edge="1">
            <mxGeometry width="240" relative="1" as="geometry">
              <mxPoint x="1249" y="831" as="sourcePoint" />
              <mxPoint x="1489" y="831" as="targetPoint" />
            </mxGeometry>
          </mxCell>
        </object>
        <object placeholders="1" c4Type="Challenge Service" c4Container="Container" c4Technology=".NET API Core" c4Description="Handles the logic of the challenge application" label="&lt;font style=&quot;font-size: 16px&quot;&gt;&lt;b&gt;%c4Type%&lt;/b&gt;&lt;/font&gt;&lt;div&gt;[%c4Container%:&amp;nbsp;%c4Technology%]&lt;/div&gt;&lt;br&gt;&lt;div&gt;&lt;font style=&quot;font-size: 11px&quot;&gt;&lt;font color=&quot;#E6E6E6&quot;&gt;%c4Description%&lt;/font&gt;&lt;/div&gt;" id="4Jpr_CQIKg-R7MHFHQ_X-1">
          <mxCell style="shape=hexagon;size=50;perimeter=hexagonPerimeter2;whiteSpace=wrap;html=1;fixedSize=1;rounded=1;labelBackgroundColor=none;fillColor=#23A2D9;fontSize=12;fontColor=#ffffff;align=center;strokeColor=#0E7DAD;metaEdit=1;points=[[0.5,0,0],[1,0.25,0],[1,0.5,0],[1,0.75,0],[0.5,1,0],[0,0.75,0],[0,0.5,0],[0,0.25,0]];resizable=0;" vertex="1" parent="1">
            <mxGeometry x="2148" y="875" width="200" height="170" as="geometry" />
          </mxCell>
        </object>
        <object placeholders="1" c4Type="Database" c4Container="Container" c4Technology="MySQL" c4Description="Stores the information of the challenge" label="&lt;font style=&quot;font-size: 16px&quot;&gt;&lt;b&gt;%c4Type%&lt;/b&gt;&lt;/font&gt;&lt;div&gt;[%c4Container%:&amp;nbsp;%c4Technology%]&lt;/div&gt;&lt;br&gt;&lt;div&gt;&lt;font style=&quot;font-size: 11px&quot;&gt;&lt;font color=&quot;#E6E6E6&quot;&gt;%c4Description%&lt;/font&gt;&lt;/div&gt;" id="4Jpr_CQIKg-R7MHFHQ_X-2">
          <mxCell style="shape=cylinder3;size=15;whiteSpace=wrap;html=1;boundedLbl=1;rounded=0;labelBackgroundColor=none;fillColor=#23A2D9;fontSize=12;fontColor=#ffffff;align=center;strokeColor=#0E7DAD;metaEdit=1;points=[[0.5,0,0],[1,0.25,0],[1,0.5,0],[1,0.75,0],[0.5,1,0],[0,0.75,0],[0,0.5,0],[0,0.25,0]];resizable=0;" vertex="1" parent="1">
            <mxGeometry x="1937" y="1106" width="240" height="120" as="geometry" />
          </mxCell>
        </object>
        <object placeholders="1" c4Type="Relationship" c4Description="Reads and write to &#xa;[SQL]" label="&lt;div style=&quot;text-align: left&quot;&gt;&lt;div style=&quot;text-align: center&quot;&gt;&lt;b&gt;%c4Description%&lt;/b&gt;&lt;/div&gt;" id="4Jpr_CQIKg-R7MHFHQ_X-3">
          <mxCell style="endArrow=blockThin;html=1;fontSize=10;fontColor=#404040;strokeWidth=1;endFill=1;strokeColor=#828282;elbow=vertical;metaEdit=1;endSize=14;startSize=14;jumpStyle=arc;jumpSize=16;rounded=0;edgeStyle=orthogonalEdgeStyle;exitX=0.5;exitY=1;exitDx=0;exitDy=0;exitPerimeter=0;entryX=0.5;entryY=0;entryDx=0;entryDy=0;entryPerimeter=0;" edge="1" parent="1" source="4Jpr_CQIKg-R7MHFHQ_X-1" target="4Jpr_CQIKg-R7MHFHQ_X-2">
            <mxGeometry width="240" relative="1" as="geometry">
              <mxPoint x="2239" y="1053" as="sourcePoint" />
              <mxPoint x="2581" y="1335" as="targetPoint" />
            </mxGeometry>
          </mxCell>
        </object>
        <mxCell id="4Jpr_CQIKg-R7MHFHQ_X-4" value="" style="endArrow=classic;html=1;rounded=0;exitX=0.5;exitY=1;exitDx=0;exitDy=0;exitPerimeter=0;entryX=0.5;entryY=0;entryDx=0;entryDy=0;entryPerimeter=0;" edge="1" parent="1" source="ihpOGFcxj2weei1UJLiX-1" target="4Jpr_CQIKg-R7MHFHQ_X-1">
          <mxGeometry width="50" height="50" relative="1" as="geometry">
            <mxPoint x="2022" y="787" as="sourcePoint" />
            <mxPoint x="2072" y="737" as="targetPoint" />
            <Array as="points">
              <mxPoint x="1050" y="771" />
              <mxPoint x="2248" y="776" />
            </Array>
          </mxGeometry>
        </mxCell>
        <object placeholders="1" c4Type="Relationship" id="4Jpr_CQIKg-R7MHFHQ_X-6">
          <mxCell style="endArrow=blockThin;html=1;fontSize=10;fontColor=#404040;strokeWidth=1;endFill=1;strokeColor=#828282;elbow=vertical;metaEdit=1;endSize=14;startSize=14;jumpStyle=arc;jumpSize=16;rounded=0;edgeStyle=orthogonalEdgeStyle;exitX=0.5;exitY=1;exitDx=0;exitDy=0;exitPerimeter=0;entryX=0.5;entryY=0;entryDx=0;entryDy=0;entryPerimeter=0;" edge="1" parent="1" source="4Jpr_CQIKg-R7MHFHQ_X-1" target="ihpOGFcxj2weei1UJLiX-6">
            <mxGeometry width="240" relative="1" as="geometry">
              <mxPoint x="2005" y="1423" as="sourcePoint" />
              <mxPoint x="2245" y="1423" as="targetPoint" />
            </mxGeometry>
          </mxCell>
        </object>
        <object placeholders="1" c4Name="Azure MySQL Database Services" c4Type="Software System" c4Description="The storage of the databases" label="&lt;font style=&quot;font-size: 16px&quot;&gt;&lt;b&gt;%c4Name%&lt;/b&gt;&lt;/font&gt;&lt;div&gt;[%c4Type%]&lt;/div&gt;&lt;br&gt;&lt;div&gt;&lt;font style=&quot;font-size: 11px&quot;&gt;&lt;font color=&quot;#cccccc&quot;&gt;%c4Description%&lt;/font&gt;&lt;/div&gt;" id="4Jpr_CQIKg-R7MHFHQ_X-7">
          <mxCell style="rounded=1;whiteSpace=wrap;html=1;labelBackgroundColor=none;fillColor=#8C8496;fontColor=#ffffff;align=center;arcSize=10;strokeColor=#736782;metaEdit=1;resizable=0;points=[[0.25,0,0],[0.5,0,0],[0.75,0,0],[1,0.25,0],[1,0.5,0],[1,0.75,0],[0.75,1,0],[0.5,1,0],[0.25,1,0],[0,0.75,0],[0,0.5,0],[0,0.25,0]];" vertex="1" parent="1">
            <mxGeometry x="2053" y="181" width="240" height="120" as="geometry" />
          </mxCell>
        </object>
        <object placeholders="1" c4Name="OAuth" c4Type="Software System" c4Description="Handles the authentication of the application" label="&lt;font style=&quot;font-size: 16px&quot;&gt;&lt;b&gt;%c4Name%&lt;/b&gt;&lt;/font&gt;&lt;div&gt;[%c4Type%]&lt;/div&gt;&lt;br&gt;&lt;div&gt;&lt;font style=&quot;font-size: 11px&quot;&gt;&lt;font color=&quot;#cccccc&quot;&gt;%c4Description%&lt;/font&gt;&lt;/div&gt;" id="4Jpr_CQIKg-R7MHFHQ_X-8">
          <mxCell style="rounded=1;whiteSpace=wrap;html=1;labelBackgroundColor=none;fillColor=#8C8496;fontColor=#ffffff;align=center;arcSize=10;strokeColor=#736782;metaEdit=1;resizable=0;points=[[0.25,0,0],[0.5,0,0],[0.75,0,0],[1,0.25,0],[1,0.5,0],[1,0.75,0],[0.75,1,0],[0.5,1,0],[0.25,1,0],[0,0.75,0],[0,0.5,0],[0,0.25,0]];" vertex="1" parent="1">
            <mxGeometry x="1322" y="308" width="240" height="120" as="geometry" />
          </mxCell>
        </object>
        <mxCell id="4Jpr_CQIKg-R7MHFHQ_X-9" value="" style="endArrow=classic;html=1;rounded=0;exitX=1;exitY=0.5;exitDx=0;exitDy=0;exitPerimeter=0;" edge="1" parent="1" source="b9T-vWPG0xiMzvd_5GCJ-2" target="4Jpr_CQIKg-R7MHFHQ_X-8">
          <mxGeometry width="50" height="50" relative="1" as="geometry">
            <mxPoint x="1241" y="376" as="sourcePoint" />
            <mxPoint x="1291" y="326" as="targetPoint" />
          </mxGeometry>
        </mxCell>
        <object placeholders="1" c4Name="Language Processing API" c4Type="Software System" c4Description="Serve as a application to handle the multiple languages option in the system." label="&lt;font style=&quot;font-size: 16px&quot;&gt;&lt;b&gt;%c4Name%&lt;/b&gt;&lt;/font&gt;&lt;div&gt;[%c4Type%]&lt;/div&gt;&lt;br&gt;&lt;div&gt;&lt;font style=&quot;font-size: 11px&quot;&gt;&lt;font color=&quot;#cccccc&quot;&gt;%c4Description%&lt;/font&gt;&lt;/div&gt;" id="TQ-6lJ2phqCqSGEBIYYH-1">
          <mxCell style="rounded=1;whiteSpace=wrap;html=1;labelBackgroundColor=none;fillColor=#8C8496;fontColor=#ffffff;align=center;arcSize=10;strokeColor=#736782;metaEdit=1;resizable=0;points=[[0.25,0,0],[0.5,0,0],[0.75,0,0],[1,0.25,0],[1,0.5,0],[1,0.75,0],[0.75,1,0],[0.5,1,0],[0.25,1,0],[0,0.75,0],[0,0.5,0],[0,0.25,0]];" vertex="1" parent="1">
            <mxGeometry x="617" y="308" width="240" height="120" as="geometry" />
          </mxCell>
        </object>
        <mxCell id="TQ-6lJ2phqCqSGEBIYYH-2" value="" style="endArrow=classic;html=1;rounded=0;exitX=0;exitY=0.5;exitDx=0;exitDy=0;exitPerimeter=0;entryX=1;entryY=0.5;entryDx=0;entryDy=0;entryPerimeter=0;" edge="1" parent="1" source="b9T-vWPG0xiMzvd_5GCJ-2" target="TQ-6lJ2phqCqSGEBIYYH-1">
          <mxGeometry width="50" height="50" relative="1" as="geometry">
            <mxPoint x="838" y="263" as="sourcePoint" />
            <mxPoint x="888" y="213" as="targetPoint" />
          </mxGeometry>
        </mxCell>
        <object placeholders="1" c4Name="TicTacToe" c4Type="Software System" c4Description="The game that users play in the challenge" label="&lt;font style=&quot;font-size: 16px&quot;&gt;&lt;b&gt;%c4Name%&lt;/b&gt;&lt;/font&gt;&lt;div&gt;[%c4Type%]&lt;/div&gt;&lt;br&gt;&lt;div&gt;&lt;font style=&quot;font-size: 11px&quot;&gt;&lt;font color=&quot;#cccccc&quot;&gt;%c4Description%&lt;/font&gt;&lt;/div&gt;" id="hXEJStTEH3zjwEpW3TXG-1">
          <mxCell style="rounded=1;whiteSpace=wrap;html=1;labelBackgroundColor=none;fillColor=#8C8496;fontColor=#ffffff;align=center;arcSize=10;strokeColor=#736782;metaEdit=1;resizable=0;points=[[0.25,0,0],[0.5,0,0],[0.75,0,0],[1,0.25,0],[1,0.5,0],[1,0.75,0],[0.75,1,0],[0.5,1,0],[0.25,1,0],[0,0.75,0],[0,0.5,0],[0,0.25,0]];" vertex="1" parent="1">
            <mxGeometry x="1958" y="549" width="240" height="120" as="geometry" />
          </mxCell>
        </object>
        <object placeholders="1" c4Type="Relationship" id="hXEJStTEH3zjwEpW3TXG-2">
          <mxCell style="endArrow=blockThin;html=1;fontSize=10;fontColor=#404040;strokeWidth=1;endFill=1;strokeColor=#828282;elbow=vertical;metaEdit=1;endSize=14;startSize=14;jumpStyle=arc;jumpSize=16;rounded=0;edgeStyle=orthogonalEdgeStyle;exitX=0;exitY=0.5;exitDx=0;exitDy=0;exitPerimeter=0;entryX=0.5;entryY=1;entryDx=0;entryDy=0;entryPerimeter=0;" edge="1" parent="1" source="4Jpr_CQIKg-R7MHFHQ_X-1" target="hXEJStTEH3zjwEpW3TXG-1">
            <mxGeometry width="240" relative="1" as="geometry">
              <mxPoint x="1927" y="840" as="sourcePoint" />
              <mxPoint x="2167" y="840" as="targetPoint" />
            </mxGeometry>
          </mxCell>
        </object>
      </root>
    </mxGraphModel>
  </diagram>
  <diagram id="ZiKl8TYP_ry0L9WkNYor" name="C3">
    <mxGraphModel dx="8433" dy="1800" grid="0" gridSize="10" guides="1" tooltips="1" connect="1" arrows="1" fold="1" page="1" pageScale="1" pageWidth="827" pageHeight="1169" math="0" shadow="0">
      <root>
        <mxCell id="0" />
        <mxCell id="1" parent="0" />
        <object placeholders="1" c4Name="Web application" c4Type="Container: React" c4Description="open-source JavaScript library that is used with the user calls on the end points of the back-end" label="&lt;font style=&quot;font-size: 16px&quot;&gt;&lt;b&gt;%c4Name%&lt;/b&gt;&lt;/font&gt;&lt;div&gt;[%c4Type%]&lt;/div&gt;&lt;br&gt;&lt;div&gt;&lt;font style=&quot;font-size: 11px&quot;&gt;&lt;font color=&quot;#cccccc&quot;&gt;%c4Description%&lt;/font&gt;&lt;/div&gt;" id="_nDL1abRtCeLM-Uht5yS-1">
          <mxCell style="rounded=1;whiteSpace=wrap;html=1;labelBackgroundColor=none;fillColor=#1061B0;fontColor=#ffffff;align=center;arcSize=10;strokeColor=#0D5091;metaEdit=1;resizable=0;points=[[0.25,0,0],[0.5,0,0],[0.75,0,0],[1,0.25,0],[1,0.5,0],[1,0.75,0],[0.75,1,0],[0.5,1,0],[0.25,1,0],[0,0.75,0],[0,0.5,0],[0,0.25,0]];" parent="1" vertex="1">
            <mxGeometry x="-2542" y="482" width="240" height="120" as="geometry" />
          </mxCell>
        </object>
        <object placeholders="1" c4Name="API Gateway" c4Type="Type" c4Technology="ASP.NET Core API" c4Description="Central entry point for clients to access microservices within a system." label="&lt;font style=&quot;font-size: 16px&quot;&gt;&lt;b&gt;%c4Name%&lt;/b&gt;&lt;/font&gt;&lt;div&gt;[%c4Type%: %c4Technology%]&lt;/div&gt;&lt;br&gt;&lt;div&gt;&lt;font style=&quot;font-size: 11px&quot;&gt;&lt;font color=&quot;#E6E6E6&quot;&gt;%c4Description%&lt;/font&gt;&lt;/div&gt;" id="_nDL1abRtCeLM-Uht5yS-2">
          <mxCell style="rounded=1;whiteSpace=wrap;html=1;fontSize=11;labelBackgroundColor=none;fillColor=#23A2D9;fontColor=#ffffff;align=center;arcSize=10;strokeColor=#0E7DAD;metaEdit=1;resizable=0;points=[[0.25,0,0],[0.5,0,0],[0.75,0,0],[1,0.25,0],[1,0.5,0],[1,0.75,0],[0.75,1,0],[0.5,1,0],[0.25,1,0],[0,0.75,0],[0,0.5,0],[0,0.25,0]];" parent="1" vertex="1">
            <mxGeometry x="-2542" y="739" width="240" height="120" as="geometry" />
          </mxCell>
        </object>
        <object placeholders="1" c4Type="Relationship" c4Technology="JSON/HTTP" c4Description="Makes API calls" label="&lt;div style=&quot;text-align: left&quot;&gt;&lt;div style=&quot;text-align: center&quot;&gt;&lt;b&gt;%c4Description%&lt;/b&gt;&lt;/div&gt;&lt;div style=&quot;text-align: center&quot;&gt;[%c4Technology%]&lt;/div&gt;&lt;/div&gt;" id="_nDL1abRtCeLM-Uht5yS-3">
          <mxCell style="endArrow=blockThin;html=1;fontSize=10;fontColor=#404040;strokeWidth=1;endFill=1;strokeColor=#828282;elbow=vertical;metaEdit=1;endSize=14;startSize=14;jumpStyle=arc;jumpSize=16;rounded=0;edgeStyle=orthogonalEdgeStyle;exitX=0.5;exitY=1;exitDx=0;exitDy=0;exitPerimeter=0;" parent="1" source="_nDL1abRtCeLM-Uht5yS-1" target="_nDL1abRtCeLM-Uht5yS-2" edge="1">
            <mxGeometry x="0.001" width="240" relative="1" as="geometry">
              <mxPoint x="-2466" y="679" as="sourcePoint" />
              <mxPoint x="-2226" y="679" as="targetPoint" />
              <mxPoint as="offset" />
            </mxGeometry>
          </mxCell>
        </object>
        <object placeholders="1" c4Name="Tournament Management Service" c4Type="ContainerScopeBoundary" c4Application="Microservice" label="&lt;font style=&quot;font-size: 16px&quot;&gt;&lt;b&gt;&lt;div style=&quot;text-align: left&quot;&gt;%c4Name%&lt;/div&gt;&lt;/b&gt;&lt;/font&gt;&lt;div style=&quot;text-align: left&quot;&gt;[%c4Application%]&lt;/div&gt;" id="_nDL1abRtCeLM-Uht5yS-4">
          <mxCell style="rounded=1;fontSize=11;whiteSpace=wrap;html=1;dashed=1;arcSize=20;fillColor=none;strokeColor=#666666;fontColor=#333333;labelBackgroundColor=none;align=left;verticalAlign=bottom;labelBorderColor=none;spacingTop=0;spacing=10;dashPattern=8 4;metaEdit=1;rotatable=0;perimeter=rectanglePerimeter;noLabel=0;labelPadding=0;allowArrows=0;connectable=0;expand=0;recursiveResize=0;editable=1;pointerEvents=0;absoluteArcSize=1;points=[[0.25,0,0],[0.5,0,0],[0.75,0,0],[1,0.25,0],[1,0.5,0],[1,0.75,0],[0.75,1,0],[0.5,1,0],[0.25,1,0],[0,0.75,0],[0,0.5,0],[0,0.25,0]];" parent="1" vertex="1">
            <mxGeometry x="-2767" y="1043" width="595" height="585" as="geometry" />
          </mxCell>
        </object>
        <object placeholders="1" c4Name="TournamentController" c4Type="Container" c4Technology="Component AspNetCore MVC controller" c4Description="Endpoints for creating, updating, deleting, and viewing tournaments. Also provides endpoints for filtering and searching tournaments." label="&lt;font style=&quot;font-size: 16px&quot;&gt;&lt;b&gt;%c4Name%&lt;/b&gt;&lt;/font&gt;&lt;div&gt;[%c4Type%: %c4Technology%]&lt;/div&gt;&lt;br&gt;&lt;div&gt;&lt;font style=&quot;font-size: 11px&quot;&gt;&lt;font color=&quot;#E6E6E6&quot;&gt;%c4Description%&lt;/font&gt;&lt;/div&gt;" id="_nDL1abRtCeLM-Uht5yS-5">
          <mxCell style="rounded=1;whiteSpace=wrap;html=1;fontSize=11;labelBackgroundColor=none;fillColor=#23A2D9;fontColor=#ffffff;align=center;arcSize=10;strokeColor=#0E7DAD;metaEdit=1;resizable=0;points=[[0.25,0,0],[0.5,0,0],[0.75,0,0],[1,0.25,0],[1,0.5,0],[1,0.75,0],[0.75,1,0],[0.5,1,0],[0.25,1,0],[0,0.75,0],[0,0.5,0],[0,0.25,0]];" parent="1" vertex="1">
            <mxGeometry x="-2722" y="1065" width="240" height="120" as="geometry" />
          </mxCell>
        </object>
        <object placeholders="1" c4Name="TournamentService" c4Type="Container" c4Technology="Component AspNetCore MVC service" c4Description="business logic for tournament management, including validation of tournament data, handling tournament creation and updates, and fetching tournament information. " label="&lt;font style=&quot;font-size: 16px&quot;&gt;&lt;b&gt;%c4Name%&lt;/b&gt;&lt;/font&gt;&lt;div&gt;[%c4Type%: %c4Technology%]&lt;/div&gt;&lt;br&gt;&lt;div&gt;&lt;font style=&quot;font-size: 11px&quot;&gt;&lt;font color=&quot;#E6E6E6&quot;&gt;%c4Description%&lt;/font&gt;&lt;/div&gt;" id="_nDL1abRtCeLM-Uht5yS-6">
          <mxCell style="rounded=1;whiteSpace=wrap;html=1;fontSize=11;labelBackgroundColor=none;fillColor=#23A2D9;fontColor=#ffffff;align=center;arcSize=10;strokeColor=#0E7DAD;metaEdit=1;resizable=0;points=[[0.25,0,0],[0.5,0,0],[0.75,0,0],[1,0.25,0],[1,0.5,0],[1,0.75,0],[0.75,1,0],[0.5,1,0],[0.25,1,0],[0,0.75,0],[0,0.5,0],[0,0.25,0]];" parent="1" vertex="1">
            <mxGeometry x="-2722" y="1241" width="240" height="120" as="geometry" />
          </mxCell>
        </object>
        <object placeholders="1" c4Name="TournamentRepository" c4Type="Container" c4Technology="Entity Framework" c4Description=" Stores tournament data, including tournament details (name, date, format, etc.), participant information, and match schedules." label="&lt;font style=&quot;font-size: 16px&quot;&gt;&lt;b&gt;%c4Name%&lt;/b&gt;&lt;/font&gt;&lt;div&gt;[%c4Type%: %c4Technology%]&lt;/div&gt;&lt;br&gt;&lt;div&gt;&lt;font style=&quot;font-size: 11px&quot;&gt;&lt;font color=&quot;#E6E6E6&quot;&gt;%c4Description%&lt;/font&gt;&lt;/div&gt;" id="_nDL1abRtCeLM-Uht5yS-7">
          <mxCell style="rounded=1;whiteSpace=wrap;html=1;fontSize=11;labelBackgroundColor=none;fillColor=#23A2D9;fontColor=#ffffff;align=center;arcSize=10;strokeColor=#0E7DAD;metaEdit=1;resizable=0;points=[[0.25,0,0],[0.5,0,0],[0.75,0,0],[1,0.25,0],[1,0.5,0],[1,0.75,0],[0.75,1,0],[0.5,1,0],[0.25,1,0],[0,0.75,0],[0,0.5,0],[0,0.25,0]];" parent="1" vertex="1">
            <mxGeometry x="-2722" y="1412" width="240" height="120" as="geometry" />
          </mxCell>
        </object>
        <object placeholders="1" c4Type="Relationship" c4Description="Uses" label="&lt;div style=&quot;text-align: left&quot;&gt;&lt;div style=&quot;text-align: center&quot;&gt;&lt;b&gt;%c4Description%&lt;/b&gt;&lt;/div&gt;" id="_nDL1abRtCeLM-Uht5yS-8">
          <mxCell style="endArrow=blockThin;html=1;fontSize=10;fontColor=#404040;strokeWidth=1;endFill=1;strokeColor=#828282;elbow=vertical;metaEdit=1;endSize=14;startSize=14;jumpStyle=arc;jumpSize=16;rounded=0;edgeStyle=orthogonalEdgeStyle;exitX=0.5;exitY=1;exitDx=0;exitDy=0;exitPerimeter=0;entryX=0.5;entryY=0;entryDx=0;entryDy=0;entryPerimeter=0;" parent="1" source="_nDL1abRtCeLM-Uht5yS-5" target="_nDL1abRtCeLM-Uht5yS-6" edge="1">
            <mxGeometry width="240" relative="1" as="geometry">
              <mxPoint x="-3011" y="1195" as="sourcePoint" />
              <mxPoint x="-3011" y="1251" as="targetPoint" />
            </mxGeometry>
          </mxCell>
        </object>
        <object placeholders="1" c4Type="Relationship" c4Description="Uses" label="&lt;div style=&quot;text-align: left&quot;&gt;&lt;div style=&quot;text-align: center&quot;&gt;&lt;b&gt;%c4Description%&lt;/b&gt;&lt;/div&gt;" id="_nDL1abRtCeLM-Uht5yS-9">
          <mxCell style="endArrow=blockThin;html=1;fontSize=10;fontColor=#404040;strokeWidth=1;endFill=1;strokeColor=#828282;elbow=vertical;metaEdit=1;endSize=14;startSize=14;jumpStyle=arc;jumpSize=16;rounded=0;edgeStyle=orthogonalEdgeStyle;exitX=0.5;exitY=1;exitDx=0;exitDy=0;exitPerimeter=0;entryX=0.504;entryY=-0.019;entryDx=0;entryDy=0;entryPerimeter=0;" parent="1" source="_nDL1abRtCeLM-Uht5yS-6" target="_nDL1abRtCeLM-Uht5yS-7" edge="1">
            <mxGeometry width="240" relative="1" as="geometry">
              <mxPoint x="-2592" y="1195" as="sourcePoint" />
              <mxPoint x="-2592" y="1251" as="targetPoint" />
            </mxGeometry>
          </mxCell>
        </object>
        <object placeholders="1" c4Name="Notification Service" c4Type="ContainerScopeBoundary" c4Application="Microservice" label="&lt;font style=&quot;font-size: 16px&quot;&gt;&lt;b&gt;&lt;div style=&quot;text-align: left&quot;&gt;%c4Name%&lt;/div&gt;&lt;/b&gt;&lt;/font&gt;&lt;div style=&quot;text-align: left&quot;&gt;[%c4Application%]&lt;/div&gt;" id="_nDL1abRtCeLM-Uht5yS-10">
          <mxCell style="rounded=1;fontSize=11;whiteSpace=wrap;html=1;dashed=1;arcSize=20;fillColor=none;strokeColor=#666666;fontColor=#333333;labelBackgroundColor=none;align=left;verticalAlign=bottom;labelBorderColor=none;spacingTop=0;spacing=10;dashPattern=8 4;metaEdit=1;rotatable=0;perimeter=rectanglePerimeter;noLabel=0;labelPadding=0;allowArrows=0;connectable=0;expand=0;recursiveResize=0;editable=1;pointerEvents=0;absoluteArcSize=1;points=[[0.25,0,0],[0.5,0,0],[0.75,0,0],[1,0.25,0],[1,0.5,0],[1,0.75,0],[0.75,1,0],[0.5,1,0],[0.25,1,0],[0,0.75,0],[0,0.5,0],[0,0.25,0]];" parent="1" vertex="1">
            <mxGeometry x="-2147" y="1040" width="342" height="401" as="geometry" />
          </mxCell>
        </object>
        <object placeholders="1" c4Name="NotificationController" c4Type="Container" c4Technology="Component AspNetCore MVC controller" c4Description="Endpoints for managing push notifications, such as subscribing to notifications and fetching notification settings." label="&lt;font style=&quot;font-size: 16px&quot;&gt;&lt;b&gt;%c4Name%&lt;/b&gt;&lt;/font&gt;&lt;div&gt;[%c4Type%: %c4Technology%]&lt;/div&gt;&lt;br&gt;&lt;div&gt;&lt;font style=&quot;font-size: 11px&quot;&gt;&lt;font color=&quot;#E6E6E6&quot;&gt;%c4Description%&lt;/font&gt;&lt;/div&gt;" id="_nDL1abRtCeLM-Uht5yS-11">
          <mxCell style="rounded=1;whiteSpace=wrap;html=1;fontSize=11;labelBackgroundColor=none;fillColor=#23A2D9;fontColor=#ffffff;align=center;arcSize=10;strokeColor=#0E7DAD;metaEdit=1;resizable=0;points=[[0.25,0,0],[0.5,0,0],[0.75,0,0],[1,0.25,0],[1,0.5,0],[1,0.75,0],[0.75,1,0],[0.5,1,0],[0.25,1,0],[0,0.75,0],[0,0.5,0],[0,0.25,0]];" parent="1" vertex="1">
            <mxGeometry x="-2092" y="1072" width="240" height="120" as="geometry" />
          </mxCell>
        </object>
        <object placeholders="1" c4Name="NotificationService" c4Type="Container" c4Technology="Component AspNetCore MVC service" c4Description="Logic for sending push notifications to users based on specific events (e.g., tournament starts)." label="&lt;font style=&quot;font-size: 16px&quot;&gt;&lt;b&gt;%c4Name%&lt;/b&gt;&lt;/font&gt;&lt;div&gt;[%c4Type%: %c4Technology%]&lt;/div&gt;&lt;br&gt;&lt;div&gt;&lt;font style=&quot;font-size: 11px&quot;&gt;&lt;font color=&quot;#E6E6E6&quot;&gt;%c4Description%&lt;/font&gt;&lt;/div&gt;" id="_nDL1abRtCeLM-Uht5yS-12">
          <mxCell style="rounded=1;whiteSpace=wrap;html=1;fontSize=11;labelBackgroundColor=none;fillColor=#23A2D9;fontColor=#ffffff;align=center;arcSize=10;strokeColor=#0E7DAD;metaEdit=1;resizable=0;points=[[0.25,0,0],[0.5,0,0],[0.75,0,0],[1,0.25,0],[1,0.5,0],[1,0.75,0],[0.75,1,0],[0.5,1,0],[0.25,1,0],[0,0.75,0],[0,0.5,0],[0,0.25,0]];" parent="1" vertex="1">
            <mxGeometry x="-2092" y="1248" width="240" height="120" as="geometry" />
          </mxCell>
        </object>
        <object placeholders="1" c4Type="Relationship" c4Description="Uses" label="&lt;div style=&quot;text-align: left&quot;&gt;&lt;div style=&quot;text-align: center&quot;&gt;&lt;b&gt;%c4Description%&lt;/b&gt;&lt;/div&gt;" id="_nDL1abRtCeLM-Uht5yS-14">
          <mxCell style="endArrow=blockThin;html=1;fontSize=10;fontColor=#404040;strokeWidth=1;endFill=1;strokeColor=#828282;elbow=vertical;metaEdit=1;endSize=14;startSize=14;jumpStyle=arc;jumpSize=16;rounded=0;edgeStyle=orthogonalEdgeStyle;exitX=0.5;exitY=1;exitDx=0;exitDy=0;exitPerimeter=0;entryX=0.5;entryY=0;entryDx=0;entryDy=0;entryPerimeter=0;" parent="1" source="_nDL1abRtCeLM-Uht5yS-11" target="_nDL1abRtCeLM-Uht5yS-12" edge="1">
            <mxGeometry width="240" relative="1" as="geometry">
              <mxPoint x="-2822" y="1222" as="sourcePoint" />
              <mxPoint x="-2822" y="1278" as="targetPoint" />
            </mxGeometry>
          </mxCell>
        </object>
        <object placeholders="1" c4Name="Complain Service" c4Type="ContainerScopeBoundary" c4Application="Microservice" label="&lt;font style=&quot;font-size: 16px&quot;&gt;&lt;b&gt;&lt;div style=&quot;text-align: left&quot;&gt;%c4Name%&lt;/div&gt;&lt;/b&gt;&lt;/font&gt;&lt;div style=&quot;text-align: left&quot;&gt;[%c4Application%]&lt;/div&gt;" id="qNLeiN4bEW-hLjvEyTHj-1">
          <mxCell style="rounded=1;fontSize=11;whiteSpace=wrap;html=1;dashed=1;arcSize=20;fillColor=none;strokeColor=#666666;fontColor=#333333;labelBackgroundColor=none;align=left;verticalAlign=bottom;labelBorderColor=none;spacingTop=0;spacing=10;dashPattern=8 4;metaEdit=1;rotatable=0;perimeter=rectanglePerimeter;noLabel=0;labelPadding=0;allowArrows=0;connectable=0;expand=0;recursiveResize=0;editable=1;pointerEvents=0;absoluteArcSize=1;points=[[0.25,0,0],[0.5,0,0],[0.75,0,0],[1,0.25,0],[1,0.5,0],[1,0.75,0],[0.75,1,0],[0.5,1,0],[0.25,1,0],[0,0.75,0],[0,0.5,0],[0,0.25,0]];" parent="1" vertex="1">
            <mxGeometry x="-1514" y="1047" width="625" height="585" as="geometry" />
          </mxCell>
        </object>
        <object placeholders="1" c4Name="ComplainController" c4Type="Container" c4Technology="Component AspNetCore MVC controller" c4Description="Endpoints for handling complaints/reports." label="&lt;font style=&quot;font-size: 16px&quot;&gt;&lt;b&gt;%c4Name%&lt;/b&gt;&lt;/font&gt;&lt;div&gt;[%c4Type%: %c4Technology%]&lt;/div&gt;&lt;br&gt;&lt;div&gt;&lt;font style=&quot;font-size: 11px&quot;&gt;&lt;font color=&quot;#E6E6E6&quot;&gt;%c4Description%&lt;/font&gt;&lt;/div&gt;" id="qNLeiN4bEW-hLjvEyTHj-2">
          <mxCell style="rounded=1;whiteSpace=wrap;html=1;fontSize=11;labelBackgroundColor=none;fillColor=#23A2D9;fontColor=#ffffff;align=center;arcSize=10;strokeColor=#0E7DAD;metaEdit=1;resizable=0;points=[[0.25,0,0],[0.5,0,0],[0.75,0,0],[1,0.25,0],[1,0.5,0],[1,0.75,0],[0.75,1,0],[0.5,1,0],[0.25,1,0],[0,0.75,0],[0,0.5,0],[0,0.25,0]];" parent="1" vertex="1">
            <mxGeometry x="-1463" y="1069" width="240" height="120" as="geometry" />
          </mxCell>
        </object>
        <object placeholders="1" c4Name="ComplainService" c4Type="Container" c4Technology="Component AspNetCore MVC service" c4Description="Business logic  complaint handling." label="&lt;font style=&quot;font-size: 16px&quot;&gt;&lt;b&gt;%c4Name%&lt;/b&gt;&lt;/font&gt;&lt;div&gt;[%c4Type%: %c4Technology%]&lt;/div&gt;&lt;br&gt;&lt;div&gt;&lt;font style=&quot;font-size: 11px&quot;&gt;&lt;font color=&quot;#E6E6E6&quot;&gt;%c4Description%&lt;/font&gt;&lt;/div&gt;" id="qNLeiN4bEW-hLjvEyTHj-3">
          <mxCell style="rounded=1;whiteSpace=wrap;html=1;fontSize=11;labelBackgroundColor=none;fillColor=#23A2D9;fontColor=#ffffff;align=center;arcSize=10;strokeColor=#0E7DAD;metaEdit=1;resizable=0;points=[[0.25,0,0],[0.5,0,0],[0.75,0,0],[1,0.25,0],[1,0.5,0],[1,0.75,0],[0.75,1,0],[0.5,1,0],[0.25,1,0],[0,0.75,0],[0,0.5,0],[0,0.25,0]];" parent="1" vertex="1">
            <mxGeometry x="-1463" y="1248" width="240" height="120" as="geometry" />
          </mxCell>
        </object>
        <object placeholders="1" c4Name="ComplainRepository" c4Type="Container" c4Technology="Entity Framework" c4Description="Stores complaint reports." label="&lt;font style=&quot;font-size: 16px&quot;&gt;&lt;b&gt;%c4Name%&lt;/b&gt;&lt;/font&gt;&lt;div&gt;[%c4Type%: %c4Technology%]&lt;/div&gt;&lt;br&gt;&lt;div&gt;&lt;font style=&quot;font-size: 11px&quot;&gt;&lt;font color=&quot;#E6E6E6&quot;&gt;%c4Description%&lt;/font&gt;&lt;/div&gt;" id="qNLeiN4bEW-hLjvEyTHj-4">
          <mxCell style="rounded=1;whiteSpace=wrap;html=1;fontSize=11;labelBackgroundColor=none;fillColor=#23A2D9;fontColor=#ffffff;align=center;arcSize=10;strokeColor=#0E7DAD;metaEdit=1;resizable=0;points=[[0.25,0,0],[0.5,0,0],[0.75,0,0],[1,0.25,0],[1,0.5,0],[1,0.75,0],[0.75,1,0],[0.5,1,0],[0.25,1,0],[0,0.75,0],[0,0.5,0],[0,0.25,0]];" parent="1" vertex="1">
            <mxGeometry x="-1463" y="1419" width="240" height="120" as="geometry" />
          </mxCell>
        </object>
        <object placeholders="1" c4Type="Relationship" c4Description="Uses" label="&lt;div style=&quot;text-align: left&quot;&gt;&lt;div style=&quot;text-align: center&quot;&gt;&lt;b&gt;%c4Description%&lt;/b&gt;&lt;/div&gt;" id="qNLeiN4bEW-hLjvEyTHj-5">
          <mxCell style="endArrow=blockThin;html=1;fontSize=10;fontColor=#404040;strokeWidth=1;endFill=1;strokeColor=#828282;elbow=vertical;metaEdit=1;endSize=14;startSize=14;jumpStyle=arc;jumpSize=16;rounded=0;edgeStyle=orthogonalEdgeStyle;exitX=0.5;exitY=1;exitDx=0;exitDy=0;exitPerimeter=0;entryX=0.5;entryY=0;entryDx=0;entryDy=0;entryPerimeter=0;" parent="1" source="qNLeiN4bEW-hLjvEyTHj-2" target="qNLeiN4bEW-hLjvEyTHj-3" edge="1">
            <mxGeometry width="240" relative="1" as="geometry">
              <mxPoint x="-1773" y="1202" as="sourcePoint" />
              <mxPoint x="-1772" y="1261" as="targetPoint" />
            </mxGeometry>
          </mxCell>
        </object>
        <object placeholders="1" c4Type="Relationship" c4Description="Uses" label="&lt;div style=&quot;text-align: left&quot;&gt;&lt;div style=&quot;text-align: center&quot;&gt;&lt;b&gt;%c4Description%&lt;/b&gt;&lt;/div&gt;" id="qNLeiN4bEW-hLjvEyTHj-6">
          <mxCell style="endArrow=blockThin;html=1;fontSize=10;fontColor=#404040;strokeWidth=1;endFill=1;strokeColor=#828282;elbow=vertical;metaEdit=1;endSize=14;startSize=14;jumpStyle=arc;jumpSize=16;rounded=0;edgeStyle=orthogonalEdgeStyle;entryX=0.5;entryY=0;entryDx=0;entryDy=0;entryPerimeter=0;exitX=0.5;exitY=1;exitDx=0;exitDy=0;exitPerimeter=0;" parent="1" source="qNLeiN4bEW-hLjvEyTHj-3" target="qNLeiN4bEW-hLjvEyTHj-4" edge="1">
            <mxGeometry width="240" relative="1" as="geometry">
              <mxPoint x="-1343" y="1375" as="sourcePoint" />
              <mxPoint x="-1333" y="1258" as="targetPoint" />
            </mxGeometry>
          </mxCell>
        </object>
        <object placeholders="1" c4Name="User Profile Service" c4Type="ContainerScopeBoundary" c4Application="Microservice" label="&lt;font style=&quot;font-size: 16px&quot;&gt;&lt;b&gt;&lt;div style=&quot;text-align: left&quot;&gt;%c4Name%&lt;/div&gt;&lt;/b&gt;&lt;/font&gt;&lt;div style=&quot;text-align: left&quot;&gt;[%c4Application%]&lt;/div&gt;" id="qNLeiN4bEW-hLjvEyTHj-7">
          <mxCell style="rounded=1;fontSize=11;whiteSpace=wrap;html=1;dashed=1;arcSize=20;fillColor=none;strokeColor=#666666;fontColor=#333333;labelBackgroundColor=none;align=left;verticalAlign=bottom;labelBorderColor=none;spacingTop=0;spacing=10;dashPattern=8 4;metaEdit=1;rotatable=0;perimeter=rectanglePerimeter;noLabel=0;labelPadding=0;allowArrows=0;connectable=0;expand=0;recursiveResize=0;editable=1;pointerEvents=0;absoluteArcSize=1;points=[[0.25,0,0],[0.5,0,0],[0.75,0,0],[1,0.25,0],[1,0.5,0],[1,0.75,0],[0.75,1,0],[0.5,1,0],[0.25,1,0],[0,0.75,0],[0,0.5,0],[0,0.25,0]];" parent="1" vertex="1">
            <mxGeometry x="-3702" y="1040" width="609" height="585" as="geometry" />
          </mxCell>
        </object>
        <object placeholders="1" c4Name="UserController" c4Type="Container" c4Technology="Component AspNetCore MVC controller" c4Description=" endpoints for managing user, including fetching user details, updating profile information, changing passwords, and managing profile pictures." label="&lt;font style=&quot;font-size: 16px&quot;&gt;&lt;b&gt;%c4Name%&lt;/b&gt;&lt;/font&gt;&lt;div&gt;[%c4Type%: %c4Technology%]&lt;/div&gt;&lt;br&gt;&lt;div&gt;&lt;font style=&quot;font-size: 11px&quot;&gt;&lt;font color=&quot;#E6E6E6&quot;&gt;%c4Description%&lt;/font&gt;&lt;/div&gt;" id="qNLeiN4bEW-hLjvEyTHj-8">
          <mxCell style="rounded=1;whiteSpace=wrap;html=1;fontSize=11;labelBackgroundColor=none;fillColor=#23A2D9;fontColor=#ffffff;align=center;arcSize=10;strokeColor=#0E7DAD;metaEdit=1;resizable=0;points=[[0.25,0,0],[0.5,0,0],[0.75,0,0],[1,0.25,0],[1,0.5,0],[1,0.75,0],[0.75,1,0],[0.5,1,0],[0.25,1,0],[0,0.75,0],[0,0.5,0],[0,0.25,0]];" parent="1" vertex="1">
            <mxGeometry x="-3651" y="1065" width="240" height="120" as="geometry" />
          </mxCell>
        </object>
        <object placeholders="1" c4Name="UserService" c4Type="Container" c4Technology="Component AspNetCore MVC service" c4Description="Logic for CRUD operations on user profiles, handles password changes, and manages profile picture uploads." label="&lt;font style=&quot;font-size: 16px&quot;&gt;&lt;b&gt;%c4Name%&lt;/b&gt;&lt;/font&gt;&lt;div&gt;[%c4Type%: %c4Technology%]&lt;/div&gt;&lt;br&gt;&lt;div&gt;&lt;font style=&quot;font-size: 11px&quot;&gt;&lt;font color=&quot;#E6E6E6&quot;&gt;%c4Description%&lt;/font&gt;&lt;/div&gt;" id="qNLeiN4bEW-hLjvEyTHj-9">
          <mxCell style="rounded=1;whiteSpace=wrap;html=1;fontSize=11;labelBackgroundColor=none;fillColor=#23A2D9;fontColor=#ffffff;align=center;arcSize=10;strokeColor=#0E7DAD;metaEdit=1;resizable=0;points=[[0.25,0,0],[0.5,0,0],[0.75,0,0],[1,0.25,0],[1,0.5,0],[1,0.75,0],[0.75,1,0],[0.5,1,0],[0.25,1,0],[0,0.75,0],[0,0.5,0],[0,0.25,0]];" parent="1" vertex="1">
            <mxGeometry x="-3651" y="1241" width="240" height="120" as="geometry" />
          </mxCell>
        </object>
        <object placeholders="1" c4Name="UserRepository" c4Type="Container" c4Technology="Entity Framework" c4Description="Stores user profile data, such as user information (name, email, etc.), hashed passwords, and profile picture URLs." label="&lt;font style=&quot;font-size: 16px&quot;&gt;&lt;b&gt;%c4Name%&lt;/b&gt;&lt;/font&gt;&lt;div&gt;[%c4Type%: %c4Technology%]&lt;/div&gt;&lt;br&gt;&lt;div&gt;&lt;font style=&quot;font-size: 11px&quot;&gt;&lt;font color=&quot;#E6E6E6&quot;&gt;%c4Description%&lt;/font&gt;&lt;/div&gt;" id="qNLeiN4bEW-hLjvEyTHj-10">
          <mxCell style="rounded=1;whiteSpace=wrap;html=1;fontSize=11;labelBackgroundColor=none;fillColor=#23A2D9;fontColor=#ffffff;align=center;arcSize=10;strokeColor=#0E7DAD;metaEdit=1;resizable=0;points=[[0.25,0,0],[0.5,0,0],[0.75,0,0],[1,0.25,0],[1,0.5,0],[1,0.75,0],[0.75,1,0],[0.5,1,0],[0.25,1,0],[0,0.75,0],[0,0.5,0],[0,0.25,0]];" parent="1" vertex="1">
            <mxGeometry x="-3651" y="1412" width="240" height="120" as="geometry" />
          </mxCell>
        </object>
        <object placeholders="1" c4Type="Relationship" c4Description="Uses" label="&lt;div style=&quot;text-align: left&quot;&gt;&lt;div style=&quot;text-align: center&quot;&gt;&lt;b&gt;%c4Description%&lt;/b&gt;&lt;/div&gt;" id="qNLeiN4bEW-hLjvEyTHj-11">
          <mxCell style="endArrow=blockThin;html=1;fontSize=10;fontColor=#404040;strokeWidth=1;endFill=1;strokeColor=#828282;elbow=vertical;metaEdit=1;endSize=14;startSize=14;jumpStyle=arc;jumpSize=16;rounded=0;edgeStyle=orthogonalEdgeStyle;exitX=0.5;exitY=1;exitDx=0;exitDy=0;exitPerimeter=0;entryX=0.5;entryY=0;entryDx=0;entryDy=0;entryPerimeter=0;" parent="1" source="qNLeiN4bEW-hLjvEyTHj-8" target="qNLeiN4bEW-hLjvEyTHj-9" edge="1">
            <mxGeometry width="240" relative="1" as="geometry">
              <mxPoint x="-3950" y="1195" as="sourcePoint" />
              <mxPoint x="-3950" y="1251" as="targetPoint" />
            </mxGeometry>
          </mxCell>
        </object>
        <object placeholders="1" c4Type="Relationship" c4Description="Uses" label="&lt;div style=&quot;text-align: left&quot;&gt;&lt;div style=&quot;text-align: center&quot;&gt;&lt;b&gt;%c4Description%&lt;/b&gt;&lt;/div&gt;" id="qNLeiN4bEW-hLjvEyTHj-12">
          <mxCell style="endArrow=blockThin;html=1;fontSize=10;fontColor=#404040;strokeWidth=1;endFill=1;strokeColor=#828282;elbow=vertical;metaEdit=1;endSize=14;startSize=14;jumpStyle=arc;jumpSize=16;rounded=0;edgeStyle=orthogonalEdgeStyle;exitX=0.5;exitY=1;exitDx=0;exitDy=0;exitPerimeter=0;entryX=0.5;entryY=0;entryDx=0;entryDy=0;entryPerimeter=0;" parent="1" source="qNLeiN4bEW-hLjvEyTHj-9" target="qNLeiN4bEW-hLjvEyTHj-10" edge="1">
            <mxGeometry width="240" relative="1" as="geometry">
              <mxPoint x="-3940" y="1205" as="sourcePoint" />
              <mxPoint x="-3940" y="1261" as="targetPoint" />
            </mxGeometry>
          </mxCell>
        </object>
        <object placeholders="1" c4Type="Relationship" c4Technology="JSON/HTTP" c4Description="Makes API calls" label="&lt;div style=&quot;text-align: left&quot;&gt;&lt;div style=&quot;text-align: center&quot;&gt;&lt;b&gt;%c4Description%&lt;/b&gt;&lt;/div&gt;&lt;div style=&quot;text-align: center&quot;&gt;[%c4Technology%]&lt;/div&gt;&lt;/div&gt;" id="qNLeiN4bEW-hLjvEyTHj-13">
          <mxCell style="endArrow=blockThin;html=1;fontSize=10;fontColor=#404040;strokeWidth=1;endFill=1;strokeColor=#828282;elbow=vertical;metaEdit=1;endSize=14;startSize=14;jumpStyle=arc;jumpSize=16;rounded=0;edgeStyle=orthogonalEdgeStyle;exitX=0.5;exitY=1;exitDx=0;exitDy=0;exitPerimeter=0;entryX=0.5;entryY=0;entryDx=0;entryDy=0;entryPerimeter=0;" parent="1" source="_nDL1abRtCeLM-Uht5yS-2" target="qNLeiN4bEW-hLjvEyTHj-2" edge="1">
            <mxGeometry x="0.4066" y="17" width="240" relative="1" as="geometry">
              <mxPoint x="-539" y="881" as="sourcePoint" />
              <mxPoint x="-2010" y="1083" as="targetPoint" />
              <mxPoint x="1" as="offset" />
            </mxGeometry>
          </mxCell>
        </object>
        <object placeholders="1" c4Type="Relationship" c4Technology="JSON/HTTP" c4Description="Makes API calls" label="&lt;div style=&quot;text-align: left&quot;&gt;&lt;div style=&quot;text-align: center&quot;&gt;&lt;b&gt;%c4Description%&lt;/b&gt;&lt;/div&gt;&lt;div style=&quot;text-align: center&quot;&gt;[%c4Technology%]&lt;/div&gt;&lt;/div&gt;" id="qNLeiN4bEW-hLjvEyTHj-14">
          <mxCell style="endArrow=blockThin;html=1;fontSize=10;fontColor=#404040;strokeWidth=1;endFill=1;strokeColor=#828282;elbow=vertical;metaEdit=1;endSize=14;startSize=14;jumpStyle=arc;jumpSize=16;rounded=0;edgeStyle=orthogonalEdgeStyle;exitX=0.5;exitY=1;exitDx=0;exitDy=0;exitPerimeter=0;entryX=0.5;entryY=0;entryDx=0;entryDy=0;entryPerimeter=0;" parent="1" source="_nDL1abRtCeLM-Uht5yS-2" target="_nDL1abRtCeLM-Uht5yS-11" edge="1">
            <mxGeometry x="0.001" width="240" relative="1" as="geometry">
              <mxPoint x="-2412" y="869" as="sourcePoint" />
              <mxPoint x="-1560" y="1079" as="targetPoint" />
              <mxPoint as="offset" />
            </mxGeometry>
          </mxCell>
        </object>
        <object placeholders="1" c4Type="Relationship" c4Technology="JSON/HTTP" c4Description="Makes API calls" label="&lt;div style=&quot;text-align: left&quot;&gt;&lt;div style=&quot;text-align: center&quot;&gt;&lt;b&gt;%c4Description%&lt;/b&gt;&lt;/div&gt;&lt;div style=&quot;text-align: center&quot;&gt;[%c4Technology%]&lt;/div&gt;&lt;/div&gt;" id="qNLeiN4bEW-hLjvEyTHj-15">
          <mxCell style="endArrow=blockThin;html=1;fontSize=10;fontColor=#404040;strokeWidth=1;endFill=1;strokeColor=#828282;elbow=vertical;metaEdit=1;endSize=14;startSize=14;jumpStyle=arc;jumpSize=16;rounded=0;edgeStyle=orthogonalEdgeStyle;exitX=0.5;exitY=1;exitDx=0;exitDy=0;exitPerimeter=0;entryX=0.5;entryY=0;entryDx=0;entryDy=0;entryPerimeter=0;" parent="1" source="_nDL1abRtCeLM-Uht5yS-2" target="_nDL1abRtCeLM-Uht5yS-5" edge="1">
            <mxGeometry x="0.3333" width="240" relative="1" as="geometry">
              <mxPoint x="-2412" y="869" as="sourcePoint" />
              <mxPoint x="-1962" y="1082" as="targetPoint" />
              <mxPoint as="offset" />
            </mxGeometry>
          </mxCell>
        </object>
        <object placeholders="1" c4Type="Relationship" c4Technology="JSON/HTTP" c4Description="Makes API calls" label="&lt;div style=&quot;text-align: left&quot;&gt;&lt;div style=&quot;text-align: center&quot;&gt;&lt;b&gt;%c4Description%&lt;/b&gt;&lt;/div&gt;&lt;div style=&quot;text-align: center&quot;&gt;[%c4Technology%]&lt;/div&gt;&lt;/div&gt;" id="qNLeiN4bEW-hLjvEyTHj-16">
          <mxCell style="endArrow=blockThin;html=1;fontSize=10;fontColor=#404040;strokeWidth=1;endFill=1;strokeColor=#828282;elbow=vertical;metaEdit=1;endSize=14;startSize=14;jumpStyle=arc;jumpSize=16;rounded=0;edgeStyle=orthogonalEdgeStyle;exitX=0.5;exitY=1;exitDx=0;exitDy=0;exitPerimeter=0;entryX=0.5;entryY=0;entryDx=0;entryDy=0;entryPerimeter=0;" parent="1" source="_nDL1abRtCeLM-Uht5yS-2" target="qNLeiN4bEW-hLjvEyTHj-8" edge="1">
            <mxGeometry x="0.001" width="240" relative="1" as="geometry">
              <mxPoint x="-2402" y="879" as="sourcePoint" />
              <mxPoint x="-1952" y="1092" as="targetPoint" />
              <mxPoint as="offset" />
            </mxGeometry>
          </mxCell>
        </object>
        <object placeholders="1" c4Name="Message Broker" c4Type="Message Broker" c4Technology="RabbitMQ" c4Description="Handles the publish and subscriptions of services." label="&lt;font style=&quot;font-size: 16px&quot;&gt;&lt;b&gt;%c4Type%&lt;/b&gt;&lt;/font&gt;&lt;div&gt;[%c4Type%:&amp;nbsp;%c4Technology%]&lt;/div&gt;&lt;br&gt;&lt;div&gt;&lt;font style=&quot;font-size: 11px&quot;&gt;&lt;font color=&quot;#E6E6E6&quot;&gt;%c4Description%&lt;/font&gt;&lt;/div&gt;" id="qNLeiN4bEW-hLjvEyTHj-24">
          <mxCell style="shape=cylinder3;size=15;direction=south;whiteSpace=wrap;html=1;boundedLbl=1;rounded=0;labelBackgroundColor=none;fillColor=#23A2D9;fontSize=12;fontColor=#ffffff;align=center;strokeColor=#0E7DAD;metaEdit=1;points=[[0.5,0,0],[1,0.25,0],[1,0.5,0],[1,0.75,0],[0.5,1,0],[0,0.75,0],[0,0.5,0],[0,0.25,0]];resizable=0;strokeWidth=2;" parent="1" vertex="1">
            <mxGeometry x="-2092" y="1945" width="240" height="120" as="geometry" />
          </mxCell>
        </object>
        <object placeholders="1" c4Name="" c4Type="UserDatabase" c4Technology="MySQL" c4Description="Stores the information of the user" label="&lt;font style=&quot;font-size: 16px&quot;&gt;&lt;b&gt;%c4Type%&lt;/b&gt;&lt;/font&gt;&lt;div&gt;[%c4Type%:&amp;nbsp;%c4Technology%]&lt;/div&gt;&lt;br&gt;&lt;div&gt;&lt;font style=&quot;font-size: 11px&quot;&gt;&lt;font color=&quot;#E6E6E6&quot;&gt;%c4Description%&lt;/font&gt;&lt;/div&gt;" id="qNLeiN4bEW-hLjvEyTHj-25">
          <mxCell style="shape=cylinder3;size=15;whiteSpace=wrap;html=1;boundedLbl=1;rounded=0;labelBackgroundColor=none;fillColor=#23A2D9;fontSize=12;fontColor=#ffffff;align=center;strokeColor=#0E7DAD;metaEdit=1;points=[[0.5,0,0],[1,0.25,0],[1,0.5,0],[1,0.75,0],[0.5,1,0],[0,0.75,0],[0,0.5,0],[0,0.25,0]];resizable=0;" parent="1" vertex="1">
            <mxGeometry x="-3651" y="1721" width="240" height="120" as="geometry" />
          </mxCell>
        </object>
        <object placeholders="1" c4Name="TournamentDatabase" c4Type="TournamentDatabase" c4Technology="MySQL" c4Description="Stores the information of the tournament" label="&lt;font style=&quot;font-size: 16px&quot;&gt;&lt;b&gt;%c4Type%&lt;/b&gt;&lt;/font&gt;&lt;div&gt;[%c4Type%:&amp;nbsp;%c4Technology%]&lt;/div&gt;&lt;br&gt;&lt;div&gt;&lt;font style=&quot;font-size: 11px&quot;&gt;&lt;font color=&quot;#E6E6E6&quot;&gt;%c4Description%&lt;/font&gt;&lt;/div&gt;" id="qNLeiN4bEW-hLjvEyTHj-26">
          <mxCell style="shape=cylinder3;size=15;whiteSpace=wrap;html=1;boundedLbl=1;rounded=0;labelBackgroundColor=none;fillColor=#23A2D9;fontSize=12;fontColor=#ffffff;align=center;strokeColor=#0E7DAD;metaEdit=1;points=[[0.5,0,0],[1,0.25,0],[1,0.5,0],[1,0.75,0],[0.5,1,0],[0,0.75,0],[0,0.5,0],[0,0.25,0]];resizable=0;" parent="1" vertex="1">
            <mxGeometry x="-2722" y="1721" width="240" height="120" as="geometry" />
          </mxCell>
        </object>
        <object placeholders="1" c4Name="Container name" c4Type="ComplainDatabase" c4Technology="MySQL" c4Description="Stores the information of the complain" label="&lt;font style=&quot;font-size: 16px&quot;&gt;&lt;b&gt;%c4Type%&lt;/b&gt;&lt;/font&gt;&lt;div&gt;[%c4Type%:&amp;nbsp;%c4Technology%]&lt;/div&gt;&lt;br&gt;&lt;div&gt;&lt;font style=&quot;font-size: 11px&quot;&gt;&lt;font color=&quot;#E6E6E6&quot;&gt;%c4Description%&lt;/font&gt;&lt;/div&gt;" id="qNLeiN4bEW-hLjvEyTHj-27">
          <mxCell style="shape=cylinder3;size=15;whiteSpace=wrap;html=1;boundedLbl=1;rounded=0;labelBackgroundColor=none;fillColor=#23A2D9;fontSize=12;fontColor=#ffffff;align=center;strokeColor=#0E7DAD;metaEdit=1;points=[[0.5,0,0],[1,0.25,0],[1,0.5,0],[1,0.75,0],[0.5,1,0],[0,0.75,0],[0,0.5,0],[0,0.25,0]];resizable=0;" parent="1" vertex="1">
            <mxGeometry x="-1463" y="1737" width="240" height="120" as="geometry" />
          </mxCell>
        </object>
        <object placeholders="1" c4Type="Relationship" c4Description="" label="&lt;div style=&quot;text-align: left&quot;&gt;&lt;div style=&quot;text-align: center&quot;&gt;&lt;b&gt;%c4Description%&lt;/b&gt;&lt;/div&gt;" id="qNLeiN4bEW-hLjvEyTHj-29">
          <mxCell style="endArrow=blockThin;html=1;fontSize=10;fontColor=#404040;strokeWidth=1;endFill=1;strokeColor=#828282;elbow=vertical;metaEdit=1;endSize=14;startSize=14;jumpStyle=arc;jumpSize=16;rounded=0;edgeStyle=orthogonalEdgeStyle;exitX=0.5;exitY=1;exitDx=0;exitDy=0;exitPerimeter=0;entryX=0.5;entryY=0;entryDx=0;entryDy=0;entryPerimeter=0;" parent="1" source="_nDL1abRtCeLM-Uht5yS-7" target="qNLeiN4bEW-hLjvEyTHj-26" edge="1">
            <mxGeometry width="240" relative="1" as="geometry">
              <mxPoint x="-1019" y="1737" as="sourcePoint" />
              <mxPoint x="-2577" y="2123" as="targetPoint" />
            </mxGeometry>
          </mxCell>
        </object>
        <mxCell id="qNLeiN4bEW-hLjvEyTHj-30" value="Read/Write" style="edgeLabel;html=1;align=center;verticalAlign=middle;resizable=0;points=[];" parent="qNLeiN4bEW-hLjvEyTHj-29" vertex="1" connectable="0">
          <mxGeometry x="0.9123" y="-1" relative="1" as="geometry">
            <mxPoint as="offset" />
          </mxGeometry>
        </mxCell>
        <object placeholders="1" c4Type="Relationship" c4Description="" label="&lt;div style=&quot;text-align: left&quot;&gt;&lt;div style=&quot;text-align: center&quot;&gt;&lt;b&gt;%c4Description%&lt;/b&gt;&lt;/div&gt;" id="qNLeiN4bEW-hLjvEyTHj-31">
          <mxCell style="endArrow=blockThin;html=1;fontSize=10;fontColor=#404040;strokeWidth=1;endFill=1;strokeColor=#828282;elbow=vertical;metaEdit=1;endSize=14;startSize=14;jumpStyle=arc;jumpSize=16;rounded=0;edgeStyle=orthogonalEdgeStyle;exitX=0.5;exitY=1;exitDx=0;exitDy=0;exitPerimeter=0;entryX=0.5;entryY=0;entryDx=0;entryDy=0;entryPerimeter=0;" parent="1" source="qNLeiN4bEW-hLjvEyTHj-10" target="qNLeiN4bEW-hLjvEyTHj-25" edge="1">
            <mxGeometry width="240" relative="1" as="geometry">
              <mxPoint x="-3082" y="1542" as="sourcePoint" />
              <mxPoint x="-3261" y="1722" as="targetPoint" />
            </mxGeometry>
          </mxCell>
        </object>
        <mxCell id="qNLeiN4bEW-hLjvEyTHj-32" value="Read/Write" style="edgeLabel;html=1;align=center;verticalAlign=middle;resizable=0;points=[];" parent="qNLeiN4bEW-hLjvEyTHj-31" vertex="1" connectable="0">
          <mxGeometry x="0.9123" y="-1" relative="1" as="geometry">
            <mxPoint as="offset" />
          </mxGeometry>
        </mxCell>
        <object placeholders="1" c4Type="Relationship" c4Description="" label="&lt;div style=&quot;text-align: left&quot;&gt;&lt;div style=&quot;text-align: center&quot;&gt;&lt;b&gt;%c4Description%&lt;/b&gt;&lt;/div&gt;" id="qNLeiN4bEW-hLjvEyTHj-33">
          <mxCell style="endArrow=blockThin;html=1;fontSize=10;fontColor=#404040;strokeWidth=1;endFill=1;strokeColor=#828282;elbow=vertical;metaEdit=1;endSize=14;startSize=14;jumpStyle=arc;jumpSize=16;rounded=0;edgeStyle=orthogonalEdgeStyle;exitX=0.5;exitY=1;exitDx=0;exitDy=0;exitPerimeter=0;entryX=0.5;entryY=0;entryDx=0;entryDy=0;entryPerimeter=0;" parent="1" source="qNLeiN4bEW-hLjvEyTHj-4" target="qNLeiN4bEW-hLjvEyTHj-27" edge="1">
            <mxGeometry width="240" relative="1" as="geometry">
              <mxPoint x="-2175" y="1559" as="sourcePoint" />
              <mxPoint x="-2354" y="1739" as="targetPoint" />
            </mxGeometry>
          </mxCell>
        </object>
        <mxCell id="qNLeiN4bEW-hLjvEyTHj-34" value="Read/Write" style="edgeLabel;html=1;align=center;verticalAlign=middle;resizable=0;points=[];" parent="qNLeiN4bEW-hLjvEyTHj-33" vertex="1" connectable="0">
          <mxGeometry x="0.9123" y="-1" relative="1" as="geometry">
            <mxPoint as="offset" />
          </mxGeometry>
        </mxCell>
        <object placeholders="1" c4Name="Quantum Chess Game" c4Type="Software System" c4Description="The game that users play in the tournament" label="&lt;font style=&quot;font-size: 16px&quot;&gt;&lt;b&gt;%c4Name%&lt;/b&gt;&lt;/font&gt;&lt;div&gt;[%c4Type%]&lt;/div&gt;&lt;br&gt;&lt;div&gt;&lt;font style=&quot;font-size: 11px&quot;&gt;&lt;font color=&quot;#cccccc&quot;&gt;%c4Description%&lt;/font&gt;&lt;/div&gt;" id="cGyewSbnUosPfj-Sy5fe-1">
          <mxCell style="rounded=1;whiteSpace=wrap;html=1;labelBackgroundColor=none;fillColor=#8C8496;fontColor=#ffffff;align=center;arcSize=10;strokeColor=#736782;metaEdit=1;resizable=0;points=[[0.25,0,0],[0.5,0,0],[0.75,0,0],[1,0.25,0],[1,0.5,0],[1,0.75,0],[0.75,1,0],[0.5,1,0],[0.25,1,0],[0,0.75,0],[0,0.5,0],[0,0.25,0]];" parent="1" vertex="1">
            <mxGeometry x="-3050" y="1033" width="240" height="120" as="geometry" />
          </mxCell>
        </object>
        <object placeholders="1" c4Name="Email Services" c4Type="Software System" c4Description="Handles the email to the end-user." label="&lt;font style=&quot;font-size: 16px&quot;&gt;&lt;b&gt;%c4Name%&lt;/b&gt;&lt;/font&gt;&lt;div&gt;[%c4Type%]&lt;/div&gt;&lt;br&gt;&lt;div&gt;&lt;font style=&quot;font-size: 11px&quot;&gt;&lt;font color=&quot;#cccccc&quot;&gt;%c4Description%&lt;/font&gt;&lt;/div&gt;" id="rSvlWtgK-bh7mnxNFoSA-1">
          <mxCell style="rounded=1;whiteSpace=wrap;html=1;labelBackgroundColor=none;fillColor=#8C8496;fontColor=#ffffff;align=center;arcSize=10;strokeColor=#736782;metaEdit=1;resizable=0;points=[[0.25,0,0],[0.5,0,0],[0.75,0,0],[1,0.25,0],[1,0.5,0],[1,0.75,0],[0.75,1,0],[0.5,1,0],[0.25,1,0],[0,0.75,0],[0,0.5,0],[0,0.25,0]];" parent="1" vertex="1">
            <mxGeometry x="-1782" y="1072" width="240" height="120" as="geometry" />
          </mxCell>
        </object>
        <object placeholders="1" c4Type="Relationship" id="rSvlWtgK-bh7mnxNFoSA-4">
          <mxCell style="endArrow=blockThin;html=1;fontSize=10;fontColor=#404040;strokeWidth=1;endFill=1;strokeColor=#828282;elbow=vertical;metaEdit=1;endSize=14;startSize=14;jumpStyle=arc;jumpSize=16;rounded=0;edgeStyle=orthogonalEdgeStyle;exitX=0.75;exitY=1;exitDx=0;exitDy=0;exitPerimeter=0;entryX=0;entryY=0.25;entryDx=0;entryDy=0;entryPerimeter=0;" parent="1" source="_nDL1abRtCeLM-Uht5yS-12" target="qNLeiN4bEW-hLjvEyTHj-24" edge="1">
            <mxGeometry width="240" relative="1" as="geometry">
              <mxPoint x="-1792" y="1749" as="sourcePoint" />
              <mxPoint x="-1552" y="1749" as="targetPoint" />
              <Array as="points">
                <mxPoint x="-1912" y="1674" />
                <mxPoint x="-1912" y="1674" />
              </Array>
            </mxGeometry>
          </mxCell>
        </object>
        <object placeholders="1" c4Type="Relationship" id="rSvlWtgK-bh7mnxNFoSA-10">
          <mxCell style="endArrow=blockThin;html=1;fontSize=10;fontColor=#404040;strokeWidth=1;endFill=1;strokeColor=#828282;elbow=vertical;metaEdit=1;endSize=14;startSize=14;jumpStyle=arc;jumpSize=16;rounded=0;edgeStyle=orthogonalEdgeStyle;exitX=0;exitY=0.5;exitDx=0;exitDy=0;exitPerimeter=0;entryX=0.5;entryY=1;entryDx=0;entryDy=0;entryPerimeter=0;" parent="1" source="_nDL1abRtCeLM-Uht5yS-6" target="cGyewSbnUosPfj-Sy5fe-1" edge="1">
            <mxGeometry width="240" relative="1" as="geometry">
              <mxPoint x="-3014" y="1326" as="sourcePoint" />
              <mxPoint x="-2774" y="1326" as="targetPoint" />
              <Array as="points">
                <mxPoint x="-2759" y="1301" />
                <mxPoint x="-2759" y="1254" />
                <mxPoint x="-2930" y="1254" />
              </Array>
            </mxGeometry>
          </mxCell>
        </object>
        <object placeholders="1" c4Name="C3" c4Type="SystemScopeBoundary" c4Application="Chess Tournament System" label="&lt;font style=&quot;font-size: 16px&quot;&gt;&lt;b&gt;&lt;div style=&quot;text-align: left&quot;&gt;%c4Name%&lt;/div&gt;&lt;/b&gt;&lt;/font&gt;&lt;div style=&quot;text-align: left&quot;&gt;[%c4Application%]&lt;/div&gt;" id="GTbFmjwYH12Lzb5bj-2C-1">
          <mxCell style="rounded=1;fontSize=11;whiteSpace=wrap;html=1;dashed=1;arcSize=20;fillColor=none;strokeColor=#666666;fontColor=#333333;labelBackgroundColor=none;align=left;verticalAlign=bottom;labelBorderColor=none;spacingTop=0;spacing=10;dashPattern=8 4;metaEdit=1;rotatable=0;perimeter=rectanglePerimeter;noLabel=0;labelPadding=0;allowArrows=0;connectable=0;expand=0;recursiveResize=0;editable=1;pointerEvents=0;absoluteArcSize=1;points=[[0.25,0,0],[0.5,0,0],[0.75,0,0],[1,0.25,0],[1,0.5,0],[1,0.75,0],[0.75,1,0],[0.5,1,0],[0.25,1,0],[0,0.75,0],[0,0.5,0],[0,0.25,0]];" parent="1" vertex="1">
            <mxGeometry x="-4216" y="470" width="4122" height="1659" as="geometry" />
          </mxCell>
        </object>
        <object placeholders="1" c4Name="MessagingService" c4Type="Container" c4Technology="Component AspNetCore MVC service" c4Description="Handles the methods of sub/pub to the message broker" label="&lt;font style=&quot;font-size: 16px&quot;&gt;&lt;b&gt;%c4Name%&lt;/b&gt;&lt;/font&gt;&lt;div&gt;[%c4Type%: %c4Technology%]&lt;/div&gt;&lt;br&gt;&lt;div&gt;&lt;font style=&quot;font-size: 11px&quot;&gt;&lt;font color=&quot;#E6E6E6&quot;&gt;%c4Description%&lt;/font&gt;&lt;/div&gt;" id="nEdxq972ILvVCM9bhXyJ-1">
          <mxCell style="rounded=1;whiteSpace=wrap;html=1;fontSize=11;labelBackgroundColor=none;fillColor=#23A2D9;fontColor=#ffffff;align=center;arcSize=10;strokeColor=#0E7DAD;metaEdit=1;resizable=0;points=[[0.25,0,0],[0.5,0,0],[0.75,0,0],[1,0.25,0],[1,0.5,0],[1,0.75,0],[0.75,1,0],[0.5,1,0],[0.25,1,0],[0,0.75,0],[0,0.5,0],[0,0.25,0]];" parent="1" vertex="1">
            <mxGeometry x="-1151" y="1248" width="240" height="120" as="geometry" />
          </mxCell>
        </object>
        <object placeholders="1" c4Type="Relationship" id="nEdxq972ILvVCM9bhXyJ-2">
          <mxCell style="endArrow=blockThin;html=1;fontSize=10;fontColor=#404040;strokeWidth=1;endFill=1;strokeColor=#828282;elbow=vertical;metaEdit=1;endSize=14;startSize=14;jumpStyle=arc;jumpSize=16;rounded=0;edgeStyle=orthogonalEdgeStyle;exitX=1;exitY=0.5;exitDx=0;exitDy=0;exitPerimeter=0;entryX=0;entryY=0.5;entryDx=0;entryDy=0;entryPerimeter=0;" parent="1" source="qNLeiN4bEW-hLjvEyTHj-3" target="nEdxq972ILvVCM9bhXyJ-1" edge="1">
            <mxGeometry width="240" relative="1" as="geometry">
              <mxPoint x="-1174" y="1168" as="sourcePoint" />
              <mxPoint x="-934" y="1168" as="targetPoint" />
            </mxGeometry>
          </mxCell>
        </object>
        <object placeholders="1" c4Name="MessagingService" c4Type="Container" c4Technology="Component AspNetCore MVC service" c4Description="Handles the methods of sub/pub to the message broker" label="&lt;font style=&quot;font-size: 16px&quot;&gt;&lt;b&gt;%c4Name%&lt;/b&gt;&lt;/font&gt;&lt;div&gt;[%c4Type%: %c4Technology%]&lt;/div&gt;&lt;br&gt;&lt;div&gt;&lt;font style=&quot;font-size: 11px&quot;&gt;&lt;font color=&quot;#E6E6E6&quot;&gt;%c4Description%&lt;/font&gt;&lt;/div&gt;" id="nEdxq972ILvVCM9bhXyJ-3">
          <mxCell style="rounded=1;whiteSpace=wrap;html=1;fontSize=11;labelBackgroundColor=none;fillColor=#23A2D9;fontColor=#ffffff;align=center;arcSize=10;strokeColor=#0E7DAD;metaEdit=1;resizable=0;points=[[0.25,0,0],[0.5,0,0],[0.75,0,0],[1,0.25,0],[1,0.5,0],[1,0.75,0],[0.75,1,0],[0.5,1,0],[0.25,1,0],[0,0.75,0],[0,0.5,0],[0,0.25,0]];" parent="1" vertex="1">
            <mxGeometry x="-3352" y="1241" width="240" height="120" as="geometry" />
          </mxCell>
        </object>
        <object placeholders="1" c4Type="Relationship" id="nEdxq972ILvVCM9bhXyJ-6">
          <mxCell style="endArrow=blockThin;html=1;fontSize=10;fontColor=#404040;strokeWidth=1;endFill=1;strokeColor=#828282;elbow=vertical;metaEdit=1;endSize=14;startSize=14;jumpStyle=arc;jumpSize=16;rounded=0;edgeStyle=orthogonalEdgeStyle;exitX=1;exitY=0.5;exitDx=0;exitDy=0;exitPerimeter=0;entryX=0;entryY=0.5;entryDx=0;entryDy=0;entryPerimeter=0;" parent="1" source="qNLeiN4bEW-hLjvEyTHj-9" target="nEdxq972ILvVCM9bhXyJ-3" edge="1">
            <mxGeometry width="240" relative="1" as="geometry">
              <mxPoint x="-3377" y="1433" as="sourcePoint" />
              <mxPoint x="-3137" y="1433" as="targetPoint" />
            </mxGeometry>
          </mxCell>
        </object>
        <object placeholders="1" c4Name="MessagingService" c4Type="Container" c4Technology="Component AspNetCore MVC service" c4Description="Handles the methods of sub/pub to the message broker" label="&lt;font style=&quot;font-size: 16px&quot;&gt;&lt;b&gt;%c4Name%&lt;/b&gt;&lt;/font&gt;&lt;div&gt;[%c4Type%: %c4Technology%]&lt;/div&gt;&lt;br&gt;&lt;div&gt;&lt;font style=&quot;font-size: 11px&quot;&gt;&lt;font color=&quot;#E6E6E6&quot;&gt;%c4Description%&lt;/font&gt;&lt;/div&gt;" id="nEdxq972ILvVCM9bhXyJ-7">
          <mxCell style="rounded=1;whiteSpace=wrap;html=1;fontSize=11;labelBackgroundColor=none;fillColor=#23A2D9;fontColor=#ffffff;align=center;arcSize=10;strokeColor=#0E7DAD;metaEdit=1;resizable=0;points=[[0.25,0,0],[0.5,0,0],[0.75,0,0],[1,0.25,0],[1,0.5,0],[1,0.75,0],[0.75,1,0],[0.5,1,0],[0.25,1,0],[0,0.75,0],[0,0.5,0],[0,0.25,0]];" parent="1" vertex="1">
            <mxGeometry x="-2424" y="1241" width="240" height="120" as="geometry" />
          </mxCell>
        </object>
        <object placeholders="1" c4Type="Relationship" id="nEdxq972ILvVCM9bhXyJ-8">
          <mxCell style="endArrow=blockThin;html=1;fontSize=10;fontColor=#404040;strokeWidth=1;endFill=1;strokeColor=#828282;elbow=vertical;metaEdit=1;endSize=14;startSize=14;jumpStyle=arc;jumpSize=16;rounded=0;edgeStyle=orthogonalEdgeStyle;exitX=1;exitY=0.5;exitDx=0;exitDy=0;exitPerimeter=0;entryX=0;entryY=0.5;entryDx=0;entryDy=0;entryPerimeter=0;" parent="1" source="_nDL1abRtCeLM-Uht5yS-6" target="nEdxq972ILvVCM9bhXyJ-7" edge="1">
            <mxGeometry width="240" relative="1" as="geometry">
              <mxPoint x="-2446" y="1176" as="sourcePoint" />
              <mxPoint x="-2420" y="1297" as="targetPoint" />
            </mxGeometry>
          </mxCell>
        </object>
        <object placeholders="1" c4Type="Relationship" id="nEdxq972ILvVCM9bhXyJ-9">
          <mxCell style="endArrow=blockThin;html=1;fontSize=10;fontColor=#404040;strokeWidth=1;endFill=1;strokeColor=#828282;elbow=vertical;metaEdit=1;endSize=14;startSize=14;jumpStyle=arc;jumpSize=16;rounded=0;edgeStyle=orthogonalEdgeStyle;exitX=0.5;exitY=1;exitDx=0;exitDy=0;exitPerimeter=0;entryX=0;entryY=0.75;entryDx=0;entryDy=0;entryPerimeter=0;" parent="1" source="nEdxq972ILvVCM9bhXyJ-7" target="qNLeiN4bEW-hLjvEyTHj-24" edge="1">
            <mxGeometry width="240" relative="1" as="geometry">
              <mxPoint x="-2209" y="1730" as="sourcePoint" />
              <mxPoint x="-1969" y="1730" as="targetPoint" />
              <Array as="points">
                <mxPoint x="-2304" y="1653" />
                <mxPoint x="-2032" y="1653" />
              </Array>
            </mxGeometry>
          </mxCell>
        </object>
        <object placeholders="1" c4Type="Relationship" id="nEdxq972ILvVCM9bhXyJ-10">
          <mxCell style="endArrow=blockThin;html=1;fontSize=10;fontColor=#404040;strokeWidth=1;endFill=1;strokeColor=#828282;elbow=vertical;metaEdit=1;endSize=14;startSize=14;jumpStyle=arc;jumpSize=16;rounded=0;edgeStyle=orthogonalEdgeStyle;exitX=0.5;exitY=1;exitDx=0;exitDy=0;exitPerimeter=0;entryX=0.5;entryY=1;entryDx=0;entryDy=0;entryPerimeter=0;" parent="1" source="nEdxq972ILvVCM9bhXyJ-3" target="qNLeiN4bEW-hLjvEyTHj-24" edge="1">
            <mxGeometry width="240" relative="1" as="geometry">
              <mxPoint x="-3091" y="1773" as="sourcePoint" />
              <mxPoint x="-2851" y="1773" as="targetPoint" />
            </mxGeometry>
          </mxCell>
        </object>
        <object placeholders="1" c4Type="Relationship" id="nEdxq972ILvVCM9bhXyJ-11">
          <mxCell style="endArrow=blockThin;html=1;fontSize=10;fontColor=#404040;strokeWidth=1;endFill=1;strokeColor=#828282;elbow=vertical;metaEdit=1;endSize=14;startSize=14;jumpStyle=arc;jumpSize=16;rounded=0;edgeStyle=orthogonalEdgeStyle;exitX=0.5;exitY=1;exitDx=0;exitDy=0;exitPerimeter=0;entryX=0.5;entryY=0;entryDx=0;entryDy=0;entryPerimeter=0;" parent="1" source="nEdxq972ILvVCM9bhXyJ-1" target="qNLeiN4bEW-hLjvEyTHj-24" edge="1">
            <mxGeometry width="240" relative="1" as="geometry">
              <mxPoint x="-1076" y="1847" as="sourcePoint" />
              <mxPoint x="-836" y="1847" as="targetPoint" />
            </mxGeometry>
          </mxCell>
        </object>
        <object placeholders="1" c4Name="Azure Key Vault" c4Type="Software System" c4Description="Storing the secrets, passwords, tokens, etc. Used by connecting to third party services " label="&lt;font style=&quot;font-size: 16px&quot;&gt;&lt;b&gt;%c4Name%&lt;/b&gt;&lt;/font&gt;&lt;div&gt;[%c4Type%]&lt;/div&gt;&lt;br&gt;&lt;div&gt;&lt;font style=&quot;font-size: 11px&quot;&gt;&lt;font color=&quot;#cccccc&quot;&gt;%c4Description%&lt;/font&gt;&lt;/div&gt;" id="nEdxq972ILvVCM9bhXyJ-12">
          <mxCell style="rounded=1;whiteSpace=wrap;html=1;labelBackgroundColor=none;fillColor=#8C8496;fontColor=#ffffff;align=center;arcSize=10;strokeColor=#736782;metaEdit=1;resizable=0;points=[[0.25,0,0],[0.5,0,0],[0.75,0,0],[1,0.25,0],[1,0.5,0],[1,0.75,0],[0.75,1,0],[0.5,1,0],[0.25,1,0],[0,0.75,0],[0,0.5,0],[0,0.25,0]];" parent="1" vertex="1">
            <mxGeometry x="-1228" y="575" width="240" height="120" as="geometry" />
          </mxCell>
        </object>
        <object placeholders="1" c4Type="Relationship" id="SxG8Wi-1ptzEz5VJToHK-2">
          <mxCell style="endArrow=blockThin;html=1;fontSize=10;fontColor=#404040;strokeWidth=1;endFill=1;strokeColor=#828282;elbow=vertical;metaEdit=1;endSize=14;startSize=14;jumpStyle=arc;jumpSize=16;rounded=0;edgeStyle=orthogonalEdgeStyle;exitX=1;exitY=0.5;exitDx=0;exitDy=0;exitPerimeter=0;entryX=0.5;entryY=1;entryDx=0;entryDy=0;entryPerimeter=0;" parent="1" source="_nDL1abRtCeLM-Uht5yS-12" target="rSvlWtgK-bh7mnxNFoSA-1" edge="1">
            <mxGeometry width="240" relative="1" as="geometry">
              <mxPoint x="-1749" y="1296" as="sourcePoint" />
              <mxPoint x="-1509" y="1294" as="targetPoint" />
            </mxGeometry>
          </mxCell>
        </object>
        <object placeholders="1" c4Name="Azure MySQL Database Services" c4Type="Software System" c4Description="The storage of the databases" label="&lt;font style=&quot;font-size: 16px&quot;&gt;&lt;b&gt;%c4Name%&lt;/b&gt;&lt;/font&gt;&lt;div&gt;[%c4Type%]&lt;/div&gt;&lt;br&gt;&lt;div&gt;&lt;font style=&quot;font-size: 11px&quot;&gt;&lt;font color=&quot;#cccccc&quot;&gt;%c4Description%&lt;/font&gt;&lt;/div&gt;" id="y3CxnjF7V7tlBLZe8dX--1">
          <mxCell style="rounded=1;whiteSpace=wrap;html=1;labelBackgroundColor=none;fillColor=#8C8496;fontColor=#ffffff;align=center;arcSize=10;strokeColor=#736782;metaEdit=1;resizable=0;points=[[0.25,0,0],[0.5,0,0],[0.75,0,0],[1,0.25,0],[1,0.5,0],[1,0.75,0],[0.75,1,0],[0.5,1,0],[0.25,1,0],[0,0.75,0],[0,0.5,0],[0,0.25,0]];" vertex="1" parent="1">
            <mxGeometry x="-1537" y="579" width="240" height="120" as="geometry" />
          </mxCell>
        </object>
        <object placeholders="1" c4Name="Tournament Management Service" c4Type="ContainerScopeBoundary" c4Application="Microservice" label="&lt;font style=&quot;font-size: 16px&quot;&gt;&lt;b&gt;&lt;div style=&quot;text-align: left&quot;&gt;%c4Name%&lt;/div&gt;&lt;/b&gt;&lt;/font&gt;&lt;div style=&quot;text-align: left&quot;&gt;[%c4Application%]&lt;/div&gt;" id="ieNM3x4gUiVNyMMhBIaz-1">
          <mxCell style="rounded=1;fontSize=11;whiteSpace=wrap;html=1;dashed=1;arcSize=20;fillColor=none;strokeColor=#666666;fontColor=#333333;labelBackgroundColor=none;align=left;verticalAlign=bottom;labelBorderColor=none;spacingTop=0;spacing=10;dashPattern=8 4;metaEdit=1;rotatable=0;perimeter=rectanglePerimeter;noLabel=0;labelPadding=0;allowArrows=0;connectable=0;expand=0;recursiveResize=0;editable=1;pointerEvents=0;absoluteArcSize=1;points=[[0.25,0,0],[0.5,0,0],[0.75,0,0],[1,0.25,0],[1,0.5,0],[1,0.75,0],[0.75,1,0],[0.5,1,0],[0.25,1,0],[0,0.75,0],[0,0.5,0],[0,0.25,0]];" vertex="1" parent="1">
            <mxGeometry x="-754" y="1040" width="595" height="585" as="geometry" />
          </mxCell>
        </object>
        <object placeholders="1" c4Name="ChallengeController" c4Type="Container" c4Technology="Component AspNetCore MVC controller" c4Description="Endpoints for creating, updating, deleting, and viewing Challenge. Includes end points about leaderboard and matmaking" label="&lt;font style=&quot;font-size: 16px&quot;&gt;&lt;b&gt;%c4Name%&lt;/b&gt;&lt;/font&gt;&lt;div&gt;[%c4Type%: %c4Technology%]&lt;/div&gt;&lt;br&gt;&lt;div&gt;&lt;font style=&quot;font-size: 11px&quot;&gt;&lt;font color=&quot;#E6E6E6&quot;&gt;%c4Description%&lt;/font&gt;&lt;/div&gt;" id="ieNM3x4gUiVNyMMhBIaz-2">
          <mxCell style="rounded=1;whiteSpace=wrap;html=1;fontSize=11;labelBackgroundColor=none;fillColor=#23A2D9;fontColor=#ffffff;align=center;arcSize=10;strokeColor=#0E7DAD;metaEdit=1;resizable=0;points=[[0.25,0,0],[0.5,0,0],[0.75,0,0],[1,0.25,0],[1,0.5,0],[1,0.75,0],[0.75,1,0],[0.5,1,0],[0.25,1,0],[0,0.75,0],[0,0.5,0],[0,0.25,0]];" vertex="1" parent="1">
            <mxGeometry x="-709" y="1062" width="240" height="120" as="geometry" />
          </mxCell>
        </object>
        <object placeholders="1" c4Name="ChallengeService" c4Type="Container" c4Technology="Component AspNetCore MVC service" c4Description="business logic for Challenge management, including validation of Challenge data, handling Challenge creation and updates, and fetching Challenge information. " label="&lt;font style=&quot;font-size: 16px&quot;&gt;&lt;b&gt;%c4Name%&lt;/b&gt;&lt;/font&gt;&lt;div&gt;[%c4Type%: %c4Technology%]&lt;/div&gt;&lt;br&gt;&lt;div&gt;&lt;font style=&quot;font-size: 11px&quot;&gt;&lt;font color=&quot;#E6E6E6&quot;&gt;%c4Description%&lt;/font&gt;&lt;/div&gt;" id="ieNM3x4gUiVNyMMhBIaz-3">
          <mxCell style="rounded=1;whiteSpace=wrap;html=1;fontSize=11;labelBackgroundColor=none;fillColor=#23A2D9;fontColor=#ffffff;align=center;arcSize=10;strokeColor=#0E7DAD;metaEdit=1;resizable=0;points=[[0.25,0,0],[0.5,0,0],[0.75,0,0],[1,0.25,0],[1,0.5,0],[1,0.75,0],[0.75,1,0],[0.5,1,0],[0.25,1,0],[0,0.75,0],[0,0.5,0],[0,0.25,0]];" vertex="1" parent="1">
            <mxGeometry x="-709" y="1238" width="240" height="120" as="geometry" />
          </mxCell>
        </object>
        <object placeholders="1" c4Name="ChallengeRepository" c4Type="Container" c4Technology="Entity Framework" c4Description=" Stores Challenge data, including Challenge details (name, date, format, etc.), participant information, and match schedules." label="&lt;font style=&quot;font-size: 16px&quot;&gt;&lt;b&gt;%c4Name%&lt;/b&gt;&lt;/font&gt;&lt;div&gt;[%c4Type%: %c4Technology%]&lt;/div&gt;&lt;br&gt;&lt;div&gt;&lt;font style=&quot;font-size: 11px&quot;&gt;&lt;font color=&quot;#E6E6E6&quot;&gt;%c4Description%&lt;/font&gt;&lt;/div&gt;" id="ieNM3x4gUiVNyMMhBIaz-4">
          <mxCell style="rounded=1;whiteSpace=wrap;html=1;fontSize=11;labelBackgroundColor=none;fillColor=#23A2D9;fontColor=#ffffff;align=center;arcSize=10;strokeColor=#0E7DAD;metaEdit=1;resizable=0;points=[[0.25,0,0],[0.5,0,0],[0.75,0,0],[1,0.25,0],[1,0.5,0],[1,0.75,0],[0.75,1,0],[0.5,1,0],[0.25,1,0],[0,0.75,0],[0,0.5,0],[0,0.25,0]];" vertex="1" parent="1">
            <mxGeometry x="-709" y="1409" width="240" height="120" as="geometry" />
          </mxCell>
        </object>
        <object placeholders="1" c4Type="Relationship" c4Description="Uses" label="&lt;div style=&quot;text-align: left&quot;&gt;&lt;div style=&quot;text-align: center&quot;&gt;&lt;b&gt;%c4Description%&lt;/b&gt;&lt;/div&gt;" id="ieNM3x4gUiVNyMMhBIaz-5">
          <mxCell style="endArrow=blockThin;html=1;fontSize=10;fontColor=#404040;strokeWidth=1;endFill=1;strokeColor=#828282;elbow=vertical;metaEdit=1;endSize=14;startSize=14;jumpStyle=arc;jumpSize=16;rounded=0;edgeStyle=orthogonalEdgeStyle;exitX=0.5;exitY=1;exitDx=0;exitDy=0;exitPerimeter=0;entryX=0.5;entryY=0;entryDx=0;entryDy=0;entryPerimeter=0;" edge="1" parent="1" source="ieNM3x4gUiVNyMMhBIaz-2" target="ieNM3x4gUiVNyMMhBIaz-3">
            <mxGeometry width="240" relative="1" as="geometry">
              <mxPoint x="-998" y="1192" as="sourcePoint" />
              <mxPoint x="-998" y="1248" as="targetPoint" />
            </mxGeometry>
          </mxCell>
        </object>
        <object placeholders="1" c4Type="Relationship" c4Description="Uses" label="&lt;div style=&quot;text-align: left&quot;&gt;&lt;div style=&quot;text-align: center&quot;&gt;&lt;b&gt;%c4Description%&lt;/b&gt;&lt;/div&gt;" id="ieNM3x4gUiVNyMMhBIaz-6">
          <mxCell style="endArrow=blockThin;html=1;fontSize=10;fontColor=#404040;strokeWidth=1;endFill=1;strokeColor=#828282;elbow=vertical;metaEdit=1;endSize=14;startSize=14;jumpStyle=arc;jumpSize=16;rounded=0;edgeStyle=orthogonalEdgeStyle;exitX=0.5;exitY=1;exitDx=0;exitDy=0;exitPerimeter=0;entryX=0.504;entryY=-0.019;entryDx=0;entryDy=0;entryPerimeter=0;" edge="1" parent="1" source="ieNM3x4gUiVNyMMhBIaz-3" target="ieNM3x4gUiVNyMMhBIaz-4">
            <mxGeometry width="240" relative="1" as="geometry">
              <mxPoint x="-579" y="1192" as="sourcePoint" />
              <mxPoint x="-579" y="1248" as="targetPoint" />
            </mxGeometry>
          </mxCell>
        </object>
        <object placeholders="1" c4Name="ChallengeDatabase" c4Type="ChallengeDatabase" c4Technology="MySQL" c4Description="Stores the information of the tournament" label="&lt;font style=&quot;font-size: 16px&quot;&gt;&lt;b&gt;%c4Type%&lt;/b&gt;&lt;/font&gt;&lt;div&gt;[%c4Type%:&amp;nbsp;%c4Technology%]&lt;/div&gt;&lt;br&gt;&lt;div&gt;&lt;font style=&quot;font-size: 11px&quot;&gt;&lt;font color=&quot;#E6E6E6&quot;&gt;%c4Description%&lt;/font&gt;&lt;/div&gt;" id="ieNM3x4gUiVNyMMhBIaz-7">
          <mxCell style="shape=cylinder3;size=15;whiteSpace=wrap;html=1;boundedLbl=1;rounded=0;labelBackgroundColor=none;fillColor=#23A2D9;fontSize=12;fontColor=#ffffff;align=center;strokeColor=#0E7DAD;metaEdit=1;points=[[0.5,0,0],[1,0.25,0],[1,0.5,0],[1,0.75,0],[0.5,1,0],[0,0.75,0],[0,0.5,0],[0,0.25,0]];resizable=0;" vertex="1" parent="1">
            <mxGeometry x="-709" y="1718" width="240" height="120" as="geometry" />
          </mxCell>
        </object>
        <object placeholders="1" c4Type="Relationship" c4Description="" label="&lt;div style=&quot;text-align: left&quot;&gt;&lt;div style=&quot;text-align: center&quot;&gt;&lt;b&gt;%c4Description%&lt;/b&gt;&lt;/div&gt;" id="ieNM3x4gUiVNyMMhBIaz-8">
          <mxCell style="endArrow=blockThin;html=1;fontSize=10;fontColor=#404040;strokeWidth=1;endFill=1;strokeColor=#828282;elbow=vertical;metaEdit=1;endSize=14;startSize=14;jumpStyle=arc;jumpSize=16;rounded=0;edgeStyle=orthogonalEdgeStyle;exitX=0.5;exitY=1;exitDx=0;exitDy=0;exitPerimeter=0;entryX=0.5;entryY=0;entryDx=0;entryDy=0;entryPerimeter=0;" edge="1" parent="1" source="ieNM3x4gUiVNyMMhBIaz-4" target="ieNM3x4gUiVNyMMhBIaz-7">
            <mxGeometry width="240" relative="1" as="geometry">
              <mxPoint x="994" y="1734" as="sourcePoint" />
              <mxPoint x="-564" y="2120" as="targetPoint" />
            </mxGeometry>
          </mxCell>
        </object>
        <mxCell id="ieNM3x4gUiVNyMMhBIaz-9" value="Read/Write" style="edgeLabel;html=1;align=center;verticalAlign=middle;resizable=0;points=[];" vertex="1" connectable="0" parent="ieNM3x4gUiVNyMMhBIaz-8">
          <mxGeometry x="0.9123" y="-1" relative="1" as="geometry">
            <mxPoint as="offset" />
          </mxGeometry>
        </mxCell>
        <object placeholders="1" c4Name="MessagingService" c4Type="Container" c4Technology="Component AspNetCore MVC service" c4Description="Handles the methods of sub/pub to the message broker" label="&lt;font style=&quot;font-size: 16px&quot;&gt;&lt;b&gt;%c4Name%&lt;/b&gt;&lt;/font&gt;&lt;div&gt;[%c4Type%: %c4Technology%]&lt;/div&gt;&lt;br&gt;&lt;div&gt;&lt;font style=&quot;font-size: 11px&quot;&gt;&lt;font color=&quot;#E6E6E6&quot;&gt;%c4Description%&lt;/font&gt;&lt;/div&gt;" id="ieNM3x4gUiVNyMMhBIaz-10">
          <mxCell style="rounded=1;whiteSpace=wrap;html=1;fontSize=11;labelBackgroundColor=none;fillColor=#23A2D9;fontColor=#ffffff;align=center;arcSize=10;strokeColor=#0E7DAD;metaEdit=1;resizable=0;points=[[0.25,0,0],[0.5,0,0],[0.75,0,0],[1,0.25,0],[1,0.5,0],[1,0.75,0],[0.75,1,0],[0.5,1,0],[0.25,1,0],[0,0.75,0],[0,0.5,0],[0,0.25,0]];" vertex="1" parent="1">
            <mxGeometry x="-411" y="1238" width="240" height="120" as="geometry" />
          </mxCell>
        </object>
        <object placeholders="1" c4Type="Relationship" id="ieNM3x4gUiVNyMMhBIaz-11">
          <mxCell style="endArrow=blockThin;html=1;fontSize=10;fontColor=#404040;strokeWidth=1;endFill=1;strokeColor=#828282;elbow=vertical;metaEdit=1;endSize=14;startSize=14;jumpStyle=arc;jumpSize=16;rounded=0;edgeStyle=orthogonalEdgeStyle;exitX=1;exitY=0.5;exitDx=0;exitDy=0;exitPerimeter=0;entryX=0;entryY=0.5;entryDx=0;entryDy=0;entryPerimeter=0;" edge="1" parent="1" source="ieNM3x4gUiVNyMMhBIaz-3" target="ieNM3x4gUiVNyMMhBIaz-10">
            <mxGeometry width="240" relative="1" as="geometry">
              <mxPoint x="-433" y="1173" as="sourcePoint" />
              <mxPoint x="-407" y="1294" as="targetPoint" />
            </mxGeometry>
          </mxCell>
        </object>
        <object placeholders="1" c4Name="TicTacToe" c4Type="Software System" c4Description="The game that users play in the challenge" label="&lt;font style=&quot;font-size: 16px&quot;&gt;&lt;b&gt;%c4Name%&lt;/b&gt;&lt;/font&gt;&lt;div&gt;[%c4Type%]&lt;/div&gt;&lt;br&gt;&lt;div&gt;&lt;font style=&quot;font-size: 11px&quot;&gt;&lt;font color=&quot;#cccccc&quot;&gt;%c4Description%&lt;/font&gt;&lt;/div&gt;" id="ieNM3x4gUiVNyMMhBIaz-13">
          <mxCell style="rounded=1;whiteSpace=wrap;html=1;labelBackgroundColor=none;fillColor=#8C8496;fontColor=#ffffff;align=center;arcSize=10;strokeColor=#736782;metaEdit=1;resizable=0;points=[[0.25,0,0],[0.5,0,0],[0.75,0,0],[1,0.25,0],[1,0.5,0],[1,0.75,0],[0.75,1,0],[0.5,1,0],[0.25,1,0],[0,0.75,0],[0,0.5,0],[0,0.25,0]];" vertex="1" parent="1">
            <mxGeometry x="-429" y="850" width="240" height="120" as="geometry" />
          </mxCell>
        </object>
        <object placeholders="1" c4Type="Relationship" id="ieNM3x4gUiVNyMMhBIaz-14">
          <mxCell style="endArrow=blockThin;html=1;fontSize=10;fontColor=#404040;strokeWidth=1;endFill=1;strokeColor=#828282;elbow=vertical;metaEdit=1;endSize=14;startSize=14;jumpStyle=arc;jumpSize=16;rounded=0;edgeStyle=orthogonalEdgeStyle;exitX=1;exitY=0.25;exitDx=0;exitDy=0;exitPerimeter=0;entryX=0.25;entryY=1;entryDx=0;entryDy=0;entryPerimeter=0;" edge="1" parent="1" source="ieNM3x4gUiVNyMMhBIaz-3" target="ieNM3x4gUiVNyMMhBIaz-13">
            <mxGeometry width="240" relative="1" as="geometry">
              <mxPoint x="-369" y="1118" as="sourcePoint" />
              <mxPoint x="-129" y="1118" as="targetPoint" />
              <Array as="points">
                <mxPoint x="-435" y="1268" />
                <mxPoint x="-435" y="1002" />
                <mxPoint x="-369" y="1002" />
              </Array>
            </mxGeometry>
          </mxCell>
        </object>
        <object placeholders="1" c4Name="OAuth" c4Type="Software System" c4Description="Handles the authentication of the application" label="&lt;font style=&quot;font-size: 16px&quot;&gt;&lt;b&gt;%c4Name%&lt;/b&gt;&lt;/font&gt;&lt;div&gt;[%c4Type%]&lt;/div&gt;&lt;br&gt;&lt;div&gt;&lt;font style=&quot;font-size: 11px&quot;&gt;&lt;font color=&quot;#cccccc&quot;&gt;%c4Description%&lt;/font&gt;&lt;/div&gt;" id="VJYHGqEoVE5nVFAXJqWD-1">
          <mxCell style="rounded=1;whiteSpace=wrap;html=1;labelBackgroundColor=none;fillColor=#8C8496;fontColor=#ffffff;align=center;arcSize=10;strokeColor=#736782;metaEdit=1;resizable=0;points=[[0.25,0,0],[0.5,0,0],[0.75,0,0],[1,0.25,0],[1,0.5,0],[1,0.75,0],[0.75,1,0],[0.5,1,0],[0.25,1,0],[0,0.75,0],[0,0.5,0],[0,0.25,0]];" vertex="1" parent="1">
            <mxGeometry x="-1870" y="579" width="240" height="120" as="geometry" />
          </mxCell>
        </object>
      </root>
    </mxGraphModel>
  </diagram>
  <diagram id="_mKKSxzoFs-sc26f3oaU" name="C4">
    <mxGraphModel dx="1562" dy="1934" grid="0" gridSize="10" guides="1" tooltips="1" connect="1" arrows="1" fold="1" page="1" pageScale="1" pageWidth="827" pageHeight="1169" math="0" shadow="0">
      <root>
        <mxCell id="0" />
        <mxCell id="1" parent="0" />
        <object placeholders="1" c4Name="C4" c4Type="SystemScopeBoundary" c4Application="Quantum Chess Tournament Application" label="&lt;font style=&quot;font-size: 16px&quot;&gt;&lt;b&gt;&lt;div style=&quot;text-align: left&quot;&gt;%c4Name%&lt;/div&gt;&lt;/b&gt;&lt;/font&gt;&lt;div style=&quot;text-align: left&quot;&gt;[%c4Application%]&lt;/div&gt;" id="BdCET4SRpAb94vDK-Nn6-1">
          <mxCell style="rounded=1;fontSize=11;whiteSpace=wrap;html=1;dashed=1;arcSize=20;fillColor=none;strokeColor=#666666;fontColor=#333333;labelBackgroundColor=none;align=left;verticalAlign=bottom;labelBorderColor=none;spacingTop=0;spacing=10;dashPattern=8 4;metaEdit=1;rotatable=0;perimeter=rectanglePerimeter;noLabel=0;labelPadding=0;allowArrows=0;connectable=0;expand=0;recursiveResize=0;editable=1;pointerEvents=0;absoluteArcSize=1;points=[[0.25,0,0],[0.5,0,0],[0.75,0,0],[1,0.25,0],[1,0.5,0],[1,0.75,0],[0.75,1,0],[0.5,1,0],[0.25,1,0],[0,0.75,0],[0,0.5,0],[0,0.25,0]];" parent="1" vertex="1">
            <mxGeometry x="448" y="-90" width="816" height="684" as="geometry" />
          </mxCell>
        </object>
        <mxCell id="BdCET4SRpAb94vDK-Nn6-2" value="Controller" style="rounded=0;whiteSpace=wrap;html=1;" parent="1" vertex="1">
          <mxGeometry x="681" y="-60" width="286" height="60" as="geometry" />
        </mxCell>
        <mxCell id="BdCET4SRpAb94vDK-Nn6-3" value="IService" style="rounded=0;whiteSpace=wrap;html=1;" parent="1" vertex="1">
          <mxGeometry x="681" y="55" width="286" height="60" as="geometry" />
        </mxCell>
        <mxCell id="BdCET4SRpAb94vDK-Nn6-4" value="IRepository" style="rounded=0;whiteSpace=wrap;html=1;" parent="1" vertex="1">
          <mxGeometry x="681" y="293" width="286" height="60" as="geometry" />
        </mxCell>
        <mxCell id="BdCET4SRpAb94vDK-Nn6-5" value="Service" style="rounded=0;whiteSpace=wrap;html=1;" parent="1" vertex="1">
          <mxGeometry x="681" y="190" width="286" height="60" as="geometry" />
        </mxCell>
        <mxCell id="BdCET4SRpAb94vDK-Nn6-6" value="Repository" style="rounded=0;whiteSpace=wrap;html=1;" parent="1" vertex="1">
          <mxGeometry x="681" y="400" width="286" height="60" as="geometry" />
        </mxCell>
        <mxCell id="BdCET4SRpAb94vDK-Nn6-7" value="Database" style="rounded=0;whiteSpace=wrap;html=1;fillColor=#647687;fontColor=#ffffff;strokeColor=#314354;" parent="1" vertex="1">
          <mxGeometry x="681" y="518" width="286" height="60" as="geometry" />
        </mxCell>
        <mxCell id="BdCET4SRpAb94vDK-Nn6-8" value="Models" style="rounded=0;whiteSpace=wrap;html=1;" parent="1" vertex="1">
          <mxGeometry x="1103" y="293" width="120" height="60" as="geometry" />
        </mxCell>
        <mxCell id="BdCET4SRpAb94vDK-Nn6-9" value="" style="endArrow=classic;html=1;rounded=0;exitX=1;exitY=0.5;exitDx=0;exitDy=0;entryX=0;entryY=0.5;entryDx=0;entryDy=0;" parent="1" source="BdCET4SRpAb94vDK-Nn6-6" target="BdCET4SRpAb94vDK-Nn6-8" edge="1">
          <mxGeometry width="50" height="50" relative="1" as="geometry">
            <mxPoint x="989" y="400" as="sourcePoint" />
            <mxPoint x="1039" y="350" as="targetPoint" />
          </mxGeometry>
        </mxCell>
        <mxCell id="BdCET4SRpAb94vDK-Nn6-10" value="" style="endArrow=classic;html=1;rounded=0;exitX=1;exitY=0.5;exitDx=0;exitDy=0;entryX=0;entryY=0.5;entryDx=0;entryDy=0;" parent="1" source="BdCET4SRpAb94vDK-Nn6-4" target="BdCET4SRpAb94vDK-Nn6-8" edge="1">
          <mxGeometry width="50" height="50" relative="1" as="geometry">
            <mxPoint x="982" y="283" as="sourcePoint" />
            <mxPoint x="1032" y="233" as="targetPoint" />
          </mxGeometry>
        </mxCell>
        <mxCell id="BdCET4SRpAb94vDK-Nn6-11" value="" style="endArrow=classic;html=1;rounded=0;exitX=1;exitY=0.5;exitDx=0;exitDy=0;entryX=0;entryY=0.5;entryDx=0;entryDy=0;" parent="1" source="BdCET4SRpAb94vDK-Nn6-5" target="BdCET4SRpAb94vDK-Nn6-8" edge="1">
          <mxGeometry width="50" height="50" relative="1" as="geometry">
            <mxPoint x="977" y="333" as="sourcePoint" />
            <mxPoint x="1121" y="267" as="targetPoint" />
          </mxGeometry>
        </mxCell>
        <mxCell id="BdCET4SRpAb94vDK-Nn6-13" value="" style="endArrow=classic;html=1;rounded=0;exitX=0.5;exitY=1;exitDx=0;exitDy=0;entryX=0.5;entryY=0;entryDx=0;entryDy=0;" parent="1" source="BdCET4SRpAb94vDK-Nn6-2" target="BdCET4SRpAb94vDK-Nn6-3" edge="1">
          <mxGeometry width="50" height="50" relative="1" as="geometry">
            <mxPoint x="945" y="43" as="sourcePoint" />
            <mxPoint x="995" y="-7" as="targetPoint" />
          </mxGeometry>
        </mxCell>
        <mxCell id="BdCET4SRpAb94vDK-Nn6-14" value="" style="endArrow=block;dashed=1;endFill=0;endSize=12;html=1;rounded=0;exitX=0.5;exitY=0;exitDx=0;exitDy=0;entryX=0.5;entryY=1;entryDx=0;entryDy=0;" parent="1" source="BdCET4SRpAb94vDK-Nn6-5" target="BdCET4SRpAb94vDK-Nn6-3" edge="1">
          <mxGeometry width="160" relative="1" as="geometry">
            <mxPoint x="798" y="140" as="sourcePoint" />
            <mxPoint x="958" y="140" as="targetPoint" />
          </mxGeometry>
        </mxCell>
        <mxCell id="BdCET4SRpAb94vDK-Nn6-15" value="" style="endArrow=block;dashed=1;endFill=0;endSize=12;html=1;rounded=0;exitX=0.5;exitY=0;exitDx=0;exitDy=0;entryX=0.5;entryY=1;entryDx=0;entryDy=0;" parent="1" source="BdCET4SRpAb94vDK-Nn6-6" target="BdCET4SRpAb94vDK-Nn6-4" edge="1">
          <mxGeometry width="160" relative="1" as="geometry">
            <mxPoint x="834" y="200" as="sourcePoint" />
            <mxPoint x="834" y="125" as="targetPoint" />
          </mxGeometry>
        </mxCell>
        <mxCell id="BdCET4SRpAb94vDK-Nn6-16" value="" style="endArrow=classic;html=1;rounded=0;exitX=0.5;exitY=1;exitDx=0;exitDy=0;entryX=0.5;entryY=0;entryDx=0;entryDy=0;" parent="1" source="BdCET4SRpAb94vDK-Nn6-5" target="BdCET4SRpAb94vDK-Nn6-4" edge="1">
          <mxGeometry width="50" height="50" relative="1" as="geometry">
            <mxPoint x="871" y="284" as="sourcePoint" />
            <mxPoint x="921" y="234" as="targetPoint" />
          </mxGeometry>
        </mxCell>
        <mxCell id="BdCET4SRpAb94vDK-Nn6-17" value="" style="endArrow=classic;html=1;rounded=0;exitX=0.5;exitY=1;exitDx=0;exitDy=0;entryX=0.5;entryY=0;entryDx=0;entryDy=0;" parent="1" source="BdCET4SRpAb94vDK-Nn6-6" target="BdCET4SRpAb94vDK-Nn6-7" edge="1">
          <mxGeometry width="50" height="50" relative="1" as="geometry">
            <mxPoint x="834" y="260" as="sourcePoint" />
            <mxPoint x="834" y="303" as="targetPoint" />
          </mxGeometry>
        </mxCell>
        <mxCell id="f9jhsqhDIRAZbVs6oCpb-1" value="DTO" style="rounded=0;whiteSpace=wrap;html=1;" parent="1" vertex="1">
          <mxGeometry x="1103" y="55" width="120" height="60" as="geometry" />
        </mxCell>
        <mxCell id="f9jhsqhDIRAZbVs6oCpb-3" value="" style="endArrow=classic;html=1;rounded=0;exitX=1;exitY=0.5;exitDx=0;exitDy=0;entryX=0;entryY=0.5;entryDx=0;entryDy=0;" parent="1" source="BdCET4SRpAb94vDK-Nn6-2" target="f9jhsqhDIRAZbVs6oCpb-1" edge="1">
          <mxGeometry width="50" height="50" relative="1" as="geometry">
            <mxPoint x="1066" y="65" as="sourcePoint" />
            <mxPoint x="1116" y="15" as="targetPoint" />
          </mxGeometry>
        </mxCell>
        <mxCell id="f9jhsqhDIRAZbVs6oCpb-4" value="" style="endArrow=classic;html=1;rounded=0;exitX=1;exitY=0.5;exitDx=0;exitDy=0;entryX=0;entryY=0.5;entryDx=0;entryDy=0;" parent="1" source="BdCET4SRpAb94vDK-Nn6-3" target="f9jhsqhDIRAZbVs6oCpb-1" edge="1">
          <mxGeometry width="50" height="50" relative="1" as="geometry">
            <mxPoint x="977" y="-20" as="sourcePoint" />
            <mxPoint x="1113" y="95" as="targetPoint" />
          </mxGeometry>
        </mxCell>
        <mxCell id="f9jhsqhDIRAZbVs6oCpb-5" value="" style="endArrow=classic;html=1;rounded=0;exitX=1;exitY=0.5;exitDx=0;exitDy=0;entryX=0;entryY=0.5;entryDx=0;entryDy=0;" parent="1" source="BdCET4SRpAb94vDK-Nn6-5" target="f9jhsqhDIRAZbVs6oCpb-1" edge="1">
          <mxGeometry width="50" height="50" relative="1" as="geometry">
            <mxPoint x="1033" y="215" as="sourcePoint" />
            <mxPoint x="1083" y="165" as="targetPoint" />
          </mxGeometry>
        </mxCell>
      </root>
    </mxGraphModel>
  </diagram>
</mxfile>
